<svg xmlns="http://www.w3.org/2000/svg" xmlns:xlink="http://www.w3.org/1999/xlink" width="800" zoomAndPan="magnify" viewBox="0 0 600 149.999998" height="200" preserveAspectRatio="xMidYMid meet" version="1.0"><defs><g/><clipPath id="7741acba7d"><path d="M 486 37 L 531 37 L 531 91.519531 L 486 91.519531 Z M 486 37 " clip-rule="nonzero"/></clipPath><clipPath id="d298e3470c"><rect x="0" width="547" y="0" height="92"/></clipPath></defs><g transform="matrix(1, 0, 0, 1, 27, 34)"><g clip-path="url(#d298e3470c)"><g fill="#1549e6" fill-opacity="1"><g transform="translate(1.243668, 67.077425)"><g><path d="M 69.035156 -56.316406 C 69.035156 -59.996094 64.074219 -60.875 61.277344 -60.875 C 54.875 -60.875 48.957031 -59.035156 43.355469 -56.078125 C 37.359375 -59.035156 33.039062 -60.394531 26.316406 -60.394531 C 17.519531 -60.394531 0.480469 -56.875 0.480469 -45.4375 C 0.480469 -36.238281 11.839844 -34.636719 18.796875 -34.636719 C 24.476562 -34.636719 30.078125 -35.597656 35.679688 -36.796875 C 36.238281 -35.996094 36.878906 -35.199219 37.519531 -34.398438 C 31.199219 -33.039062 24.398438 -30.636719 19.4375 -26.316406 C 15.679688 -23.039062 12.398438 -18.078125 12.398438 -12.960938 C 12.398438 -6.960938 15.597656 -2.960938 21.039062 -0.800781 C 21.277344 3.359375 23.839844 6.078125 28.078125 6.078125 C 32.878906 6.078125 38.316406 1.679688 41.4375 -1.601562 C 42.15625 -2.398438 42.957031 -3.601562 43.757812 -4.320312 C 44.558594 -5.039062 46.476562 -6.160156 47.4375 -6.878906 C 51.996094 -10.320312 56.957031 -14.878906 56.957031 -20.957031 C 56.957031 -25.757812 52.476562 -27.757812 48.238281 -27.757812 C 35.679688 -27.757812 24 -15.359375 21.277344 -3.679688 C 18.480469 -6 17.4375 -8.238281 17.4375 -11.839844 C 17.4375 -16.558594 20.640625 -21.679688 23.757812 -24.957031 C 27.917969 -29.359375 32.957031 -31.597656 38.636719 -33.359375 C 40.796875 -31.917969 43.675781 -30.957031 47.835938 -30.957031 C 49.355469 -30.957031 52.636719 -31.4375 52.636719 -33.277344 C 52.636719 -34.796875 49.917969 -35.359375 45.515625 -35.359375 C 43.675781 -35.359375 41.835938 -35.117188 39.996094 -34.878906 C 39.359375 -35.757812 38.878906 -36.636719 38.636719 -37.675781 C 46.078125 -39.675781 53.515625 -41.996094 60.078125 -45.996094 C 63.195312 -47.917969 69.035156 -52.15625 69.035156 -56.316406 Z M 67.996094 -56.15625 C 67.996094 -52.476562 61.835938 -48.15625 59.035156 -46.558594 C 52.875 -42.957031 45.277344 -40.398438 38.398438 -38.796875 C 38.398438 -44.71875 42.15625 -49.195312 46.316406 -52.957031 C 46.71875 -52.714844 49.195312 -50.796875 49.4375 -50.796875 C 49.515625 -50.796875 49.675781 -50.957031 49.675781 -51.035156 C 49.675781 -51.597656 47.675781 -53.277344 47.277344 -53.675781 C 50.875 -56.394531 57.117188 -59.835938 61.757812 -59.835938 C 63.914062 -59.835938 67.996094 -58.957031 67.996094 -56.15625 Z M 51.355469 -33.277344 C 51.355469 -32.238281 48.636719 -31.996094 47.757812 -31.996094 C 44.078125 -31.996094 42.15625 -33.199219 41.117188 -33.917969 C 43.277344 -34.238281 45.4375 -34.398438 47.597656 -34.398438 C 49.597656 -34.398438 51.355469 -34.078125 51.355469 -33.277344 Z M 42.316406 -55.4375 C 38.15625 -52.15625 34.476562 -48.15625 34.476562 -42.558594 C 34.476562 -40.957031 34.796875 -39.4375 35.199219 -37.917969 C 29.839844 -36.476562 24.320312 -35.679688 18.71875 -35.679688 C 12.800781 -35.679688 1.519531 -37.359375 1.519531 -45.355469 C 1.519531 -53.035156 10.160156 -56.875 16.480469 -58.15625 C 19.757812 -58.875 23.117188 -59.117188 26.398438 -59.117188 C 33.039062 -59.117188 36.316406 -58.316406 42.316406 -55.4375 Z M 54.957031 -21.277344 C 54.957031 -15.839844 49.835938 -10.160156 45.757812 -7.121094 C 47.996094 -11.039062 50.398438 -16 50.398438 -20.558594 C 50.398438 -20.796875 50.476562 -21.757812 49.996094 -21.757812 C 49.757812 -21.757812 49.597656 -21.277344 49.597656 -21.117188 C 49.4375 -20.160156 49.355469 -19.117188 49.195312 -18.160156 C 48.238281 -13.519531 45.835938 -9.199219 43.355469 -5.199219 C 38.796875 -3.039062 35.039062 -1.441406 29.839844 -1.441406 C 26.71875 -1.441406 24.957031 -2 22.078125 -3.199219 C 24.160156 -14.398438 36.316406 -26.71875 48.15625 -26.71875 C 51.355469 -26.71875 54.957031 -24.878906 54.957031 -21.277344 Z M 41.277344 -2.960938 C 38.078125 0.480469 33.117188 5.039062 28.078125 5.039062 C 24.398438 5.039062 22 3.039062 22 -0.71875 C 24 -0.238281 25.917969 0.078125 27.917969 0.078125 C 32.71875 0.078125 36.878906 -1.121094 41.277344 -2.960938 Z M 41.277344 -2.960938 "/></g></g></g><g fill="#1549e6" fill-opacity="1"><g transform="translate(64.91242, 67.077425)"><g><path d="M 11.199219 0 C 16.558594 -7.039062 19.597656 -11.277344 26.078125 -16.957031 C 27.117188 -17.917969 29.199219 -19.757812 30.71875 -19.757812 C 31.359375 -19.757812 31.917969 -19.199219 31.917969 -18.558594 C 31.917969 -15.917969 22.078125 -6.878906 22.078125 -2.878906 C 22.078125 -0.800781 23.757812 0 25.597656 0 C 30.15625 0 39.4375 -9.917969 42.476562 -12.960938 C 42.71875 -13.199219 43.835938 -14.160156 43.835938 -14.480469 C 43.835938 -14.71875 43.597656 -14.878906 43.355469 -14.878906 C 43.117188 -14.878906 29.839844 -1.441406 26.398438 -1.441406 C 25.839844 -1.441406 25.359375 -1.917969 25.359375 -2.480469 C 25.359375 -3.679688 27.359375 -6.320312 28 -7.199219 L 33.199219 -14.398438 C 34.078125 -15.679688 35.199219 -17.039062 35.199219 -18.640625 C 35.199219 -20.480469 33.679688 -21.359375 31.996094 -21.359375 C 28.878906 -21.359375 24.476562 -17.117188 22.398438 -15.117188 C 22.957031 -16.078125 23.597656 -17.519531 23.597656 -18.640625 C 23.597656 -20.320312 22.480469 -21.277344 20.878906 -21.277344 C 18 -21.277344 12.71875 -16.957031 10.71875 -15.117188 C 11.199219 -15.917969 11.679688 -17.679688 11.679688 -18.640625 C 11.679688 -20.160156 10.71875 -21.277344 9.199219 -21.277344 C 6.160156 -21.277344 2.238281 -16.480469 0 -14.558594 C -0.320312 -14.320312 -0.640625 -14 -0.640625 -13.597656 C -0.640625 -13.4375 -0.480469 -13.277344 -0.320312 -13.277344 C 0.960938 -13.277344 5.519531 -19.917969 8.320312 -19.917969 C 8.878906 -19.917969 9.4375 -19.4375 9.4375 -18.878906 C 9.4375 -17.679688 7.199219 -14.640625 6.480469 -13.757812 L -4.078125 -0.238281 L 0.160156 -0.078125 C 1.917969 -2.238281 3.441406 -4.640625 5.121094 -6.878906 C 8.238281 -11.039062 11.839844 -14.960938 16.078125 -18 C 16.957031 -18.640625 18.398438 -19.519531 19.519531 -19.519531 C 20.238281 -19.519531 20.71875 -19.117188 20.71875 -18.398438 C 20.71875 -17.757812 20.160156 -16.800781 19.757812 -16.320312 C 15.597656 -10.800781 11.199219 -5.519531 7.039062 0 Z M 11.199219 0 "/></g></g></g><g fill="#1549e6" fill-opacity="1"><g transform="translate(107.864827, 67.077425)"><g><path d="M 11.199219 0 C 16.558594 -7.039062 19.597656 -11.277344 26.078125 -16.957031 C 27.117188 -17.917969 29.199219 -19.757812 30.71875 -19.757812 C 31.359375 -19.757812 31.917969 -19.199219 31.917969 -18.558594 C 31.917969 -15.917969 22.078125 -6.878906 22.078125 -2.878906 C 22.078125 -0.800781 23.757812 0 25.597656 0 C 30.15625 0 39.4375 -9.917969 42.476562 -12.960938 C 42.71875 -13.199219 43.835938 -14.160156 43.835938 -14.480469 C 43.835938 -14.71875 43.597656 -14.878906 43.355469 -14.878906 C 43.117188 -14.878906 29.839844 -1.441406 26.398438 -1.441406 C 25.839844 -1.441406 25.359375 -1.917969 25.359375 -2.480469 C 25.359375 -3.679688 27.359375 -6.320312 28 -7.199219 L 33.199219 -14.398438 C 34.078125 -15.679688 35.199219 -17.039062 35.199219 -18.640625 C 35.199219 -20.480469 33.679688 -21.359375 31.996094 -21.359375 C 28.878906 -21.359375 24.476562 -17.117188 22.398438 -15.117188 C 22.957031 -16.078125 23.597656 -17.519531 23.597656 -18.640625 C 23.597656 -20.320312 22.480469 -21.277344 20.878906 -21.277344 C 18 -21.277344 12.71875 -16.957031 10.71875 -15.117188 C 11.199219 -15.917969 11.679688 -17.679688 11.679688 -18.640625 C 11.679688 -20.160156 10.71875 -21.277344 9.199219 -21.277344 C 6.160156 -21.277344 2.238281 -16.480469 0 -14.558594 C -0.320312 -14.320312 -0.640625 -14 -0.640625 -13.597656 C -0.640625 -13.4375 -0.480469 -13.277344 -0.320312 -13.277344 C 0.960938 -13.277344 5.519531 -19.917969 8.320312 -19.917969 C 8.878906 -19.917969 9.4375 -19.4375 9.4375 -18.878906 C 9.4375 -17.679688 7.199219 -14.640625 6.480469 -13.757812 L -4.078125 -0.238281 L 0.160156 -0.078125 C 1.917969 -2.238281 3.441406 -4.640625 5.121094 -6.878906 C 8.238281 -11.039062 11.839844 -14.960938 16.078125 -18 C 16.957031 -18.640625 18.398438 -19.519531 19.519531 -19.519531 C 20.238281 -19.519531 20.71875 -19.117188 20.71875 -18.398438 C 20.71875 -17.757812 20.160156 -16.800781 19.757812 -16.320312 C 15.597656 -10.800781 11.199219 -5.519531 7.039062 0 Z M 11.199219 0 "/></g></g></g><g fill="#1549e6" fill-opacity="1"><g transform="translate(150.817233, 67.077425)"><g><path d="M 16.480469 -18.160156 C 16.558594 -18.398438 16.640625 -18.71875 16.640625 -18.957031 C 16.640625 -20.398438 14.71875 -20.796875 13.597656 -20.796875 C 6.71875 -20.796875 -6.480469 -11.839844 -6.480469 -4.398438 C -6.480469 -1.761719 -4.480469 0 -1.917969 0 C 1.121094 0 4.800781 -3.757812 6.878906 -5.679688 C 6.558594 -4.71875 6.160156 -3.519531 6.160156 -2.558594 C 6.160156 -0.800781 7.597656 0 9.199219 0 C 13.917969 0 21.917969 -7.28125 25.117188 -10.398438 C 25.679688 -10.878906 28.636719 -13.519531 28.636719 -14.160156 C 28.636719 -14.398438 28.558594 -14.558594 28.316406 -14.558594 C 27.917969 -14.558594 14.640625 -1.359375 10.558594 -1.359375 C 10 -1.359375 9.28125 -1.679688 9.28125 -2.398438 C 9.28125 -3.359375 11.757812 -6.640625 12.398438 -7.441406 L 22.796875 -20.558594 L 18.238281 -20.320312 Z M 15.039062 -18.078125 C 15.039062 -14.480469 1.519531 -0.960938 -1.917969 -0.960938 C -2.71875 -0.960938 -3.441406 -1.839844 -3.441406 -2.640625 C -3.441406 -5.601562 2.480469 -11.757812 4.398438 -13.679688 C 6.398438 -15.679688 10.320312 -19.679688 13.4375 -19.679688 C 14.320312 -19.679688 15.039062 -18.957031 15.039062 -18.078125 Z M 15.039062 -18.078125 "/></g></g></g><g fill="#1549e6" fill-opacity="1"><g transform="translate(178.972258, 67.077425)"><g><path d="M -4.71875 -0.640625 L -0.238281 -0.878906 C 4.238281 -5.679688 7.839844 -11.4375 12.960938 -15.679688 C 14.238281 -16.71875 18 -20.078125 19.839844 -20.078125 C 20.320312 -20.078125 20.71875 -19.679688 20.71875 -19.199219 C 20.71875 -16.640625 10.71875 -7.757812 10.71875 -3.441406 C 10.71875 -1.761719 12.238281 -0.238281 13.917969 -0.238281 C 19.519531 -0.238281 27.039062 -9.039062 30.71875 -12.878906 C 31.039062 -13.199219 31.917969 -14 31.917969 -14.398438 C 31.917969 -14.558594 31.839844 -14.878906 31.597656 -14.878906 C 30.878906 -14.878906 19.757812 -1.761719 15.277344 -1.761719 C 14.480469 -1.761719 14.160156 -2.238281 14.160156 -2.960938 C 14.160156 -6.71875 23.757812 -14.320312 23.757812 -18.796875 C 23.757812 -20.320312 22.558594 -21.359375 21.117188 -21.359375 C 17.519531 -21.359375 13.597656 -17.679688 10.960938 -15.519531 C 11.4375 -16.640625 12 -17.757812 12 -18.957031 C 12 -20.558594 10.960938 -21.757812 9.359375 -21.757812 C 6.878906 -21.757812 6.078125 -20.71875 4.398438 -19.039062 C 3.359375 -18 2.238281 -16.878906 1.199219 -15.839844 C 0.960938 -15.597656 -0.558594 -14.160156 -0.558594 -13.839844 C -0.558594 -13.679688 -0.480469 -13.4375 -0.238281 -13.4375 C 0.800781 -13.4375 6.078125 -20.238281 8.320312 -20.238281 C 8.960938 -20.238281 9.28125 -19.679688 9.28125 -19.117188 C 9.28125 -17.4375 5.121094 -12.640625 4.160156 -11.4375 Z M -4.71875 -0.640625 "/></g></g></g><g fill="#1549e6" fill-opacity="1"><g transform="translate(210.086755, 67.077425)"><g><path d="M 0.558594 -15.917969 C -1.359375 -13.519531 -7.679688 -6.558594 -7.679688 -3.28125 C -7.679688 -1.519531 -6.238281 -0.078125 -4.480469 -0.078125 C -0.320312 -0.078125 3.601562 -4.800781 6.320312 -7.519531 C 5.601562 -6.320312 4.480469 -4.078125 4.480469 -2.640625 C 4.480469 -1.039062 5.199219 0 6.878906 0 C 11.917969 0 20.160156 -9.28125 23.277344 -12.640625 C 23.679688 -13.039062 24.476562 -13.757812 24.476562 -14.398438 C 24.476562 -14.558594 24.476562 -14.71875 24.238281 -14.71875 C 23.679688 -14.71875 23.359375 -14.238281 22.957031 -13.839844 C 20.71875 -11.4375 11.039062 -1.28125 7.757812 -1.28125 C 7.199219 -1.28125 6.960938 -1.761719 6.960938 -2.238281 C 6.960938 -4.480469 20.878906 -20.640625 21.277344 -21.199219 L 16.640625 -20.957031 C 12.320312 -15.359375 7.519531 -9.757812 2.160156 -5.199219 C 1.039062 -4.320312 -2.160156 -1.28125 -3.601562 -1.28125 C -4.398438 -1.28125 -4.800781 -1.761719 -4.800781 -2.558594 C -4.800781 -4.800781 7.917969 -19.597656 9.359375 -21.277344 L 4.71875 -20.957031 Z M 0.558594 -15.917969 "/></g></g></g><g fill="#1549e6" fill-opacity="1"><g transform="translate(233.762574, 67.077425)"><g><path d="M 21.359375 -14.238281 C 21.359375 -14.398438 21.199219 -14.558594 21.039062 -14.558594 C 20.480469 -14.558594 19.117188 -13.039062 18.71875 -12.640625 C 15.277344 -9.199219 6.078125 -1.359375 0.878906 -1.359375 C -0.878906 -1.359375 -2.078125 -2.558594 -2.078125 -4.320312 C -2.078125 -5.519531 -1.519531 -6.480469 -0.878906 -7.441406 C 3.679688 -8.960938 14.800781 -12.800781 14.800781 -18.796875 C 14.800781 -20.480469 13.199219 -21.199219 11.757812 -21.199219 C 8.078125 -21.199219 2.320312 -17.277344 0 -14.71875 C -2.238281 -12.320312 -4.878906 -9.039062 -4.878906 -5.601562 C -4.878906 -2.558594 -2.320312 0 0.71875 0 C 6.878906 0 17.679688 -9.839844 21.359375 -14.238281 Z M 13.199219 -19.039062 C 13.199219 -16.957031 10.71875 -14.558594 9.28125 -13.359375 C 6.558594 -11.121094 3.039062 -9.917969 -0.160156 -8.71875 C 1.761719 -11.679688 7.917969 -20.238281 11.839844 -20.238281 C 12.558594 -20.238281 13.199219 -19.839844 13.199219 -19.039062 Z M 13.199219 -19.039062 "/></g></g></g><g fill="#1549e6" fill-opacity="1"><g transform="translate(254.47891, 67.077425)"><g><path d="M 37.199219 -45.996094 C 37.199219 -47.515625 36.316406 -48.316406 34.796875 -48.316406 C 28.476562 -48.316406 15.039062 -33.359375 11.359375 -28.878906 C 8.078125 -24.878906 4.71875 -20.878906 1.519531 -16.800781 C -0.800781 -13.839844 -3.359375 -10.71875 -4.960938 -7.359375 C -5.519531 -6.160156 -5.917969 -4.878906 -5.917969 -3.601562 C -5.917969 -1.441406 -4.558594 0 -2.320312 0 C 3.359375 0 11.839844 -8.398438 15.359375 -12.238281 C 15.519531 -12.398438 17.117188 -14.078125 17.117188 -14.398438 C 17.117188 -14.640625 16.957031 -14.800781 16.71875 -14.800781 C 16.238281 -14.800781 15.679688 -14.078125 15.4375 -13.839844 C 14 -12.320312 12.640625 -10.878906 11.121094 -9.4375 C 8.878906 -7.441406 1.601562 -1.28125 -1.519531 -1.28125 C -2.320312 -1.28125 -2.878906 -1.839844 -2.878906 -2.640625 C -2.878906 -5.839844 7.519531 -19.199219 9.359375 -21.757812 C 16.480469 -24.957031 22.796875 -28.878906 28.71875 -33.996094 C 31.597656 -36.558594 37.199219 -41.757812 37.199219 -45.996094 Z M 35.996094 -45.597656 C 35.996094 -41.917969 30 -36.71875 27.4375 -34.476562 C 21.839844 -29.4375 17.117188 -26.71875 10.480469 -23.359375 C 12.480469 -26.476562 14.71875 -29.4375 17.039062 -32.316406 C 19.757812 -35.679688 30 -47.195312 34.636719 -47.195312 C 35.597656 -47.195312 35.996094 -46.476562 35.996094 -45.597656 Z M 35.996094 -45.597656 "/></g></g></g><g fill="#1549e6" fill-opacity="1"><g transform="translate(270.796035, 67.077425)"><g/></g></g><g fill="#1549e6" fill-opacity="1"><g transform="translate(291.512372, 67.077425)"><g><path d="M 59.675781 -20.957031 C 50.398438 -11.917969 38.476562 -2.640625 24.878906 -2.640625 C 19.199219 -2.640625 15.4375 -4.480469 12.160156 -9.121094 C 14.640625 -8.640625 17.039062 -8.320312 19.597656 -8.320312 C 29.839844 -8.320312 38.796875 -12.238281 46.878906 -18.398438 C 53.515625 -23.519531 60.394531 -30.957031 60.394531 -39.917969 C 60.394531 -47.277344 53.117188 -49.675781 46.957031 -49.675781 C 40.558594 -49.675781 35.117188 -47.835938 29.4375 -44.957031 C 22 -44.238281 15.519531 -43.117188 9.359375 -38.636719 C 4 -34.71875 0.238281 -29.039062 0.238281 -22.238281 C 0.238281 -16 4.960938 -11.519531 10.480469 -9.519531 C 14.640625 -2.480469 19.679688 0.078125 27.757812 0.078125 C 34.957031 0.078125 41.4375 -2.160156 47.757812 -5.601562 C 54.957031 -9.519531 60.714844 -15.117188 66.316406 -20.957031 L 74.714844 -20.957031 C 72.15625 -16.558594 67.753906 -8.71875 67.753906 -3.601562 C 67.753906 -1.761719 68.875 0 70.875 0 C 74.636719 0 82.636719 -7.917969 85.113281 -10.640625 C 85.59375 -11.121094 87.914062 -13.679688 87.914062 -14.398438 C 87.914062 -14.480469 87.835938 -14.640625 87.753906 -14.640625 C 87.195312 -14.320312 84.234375 -11.199219 83.675781 -10.640625 C 81.835938 -8.800781 75.355469 -2.160156 72.714844 -2.160156 C 71.996094 -2.160156 71.675781 -2.960938 71.675781 -3.519531 C 71.675781 -6.960938 82.953125 -24.160156 85.035156 -27.277344 C 87.59375 -31.117188 90.3125 -34.878906 93.035156 -38.636719 C 96.152344 -43.117188 99.273438 -47.515625 102.632812 -51.835938 C 103.273438 -52.636719 104.472656 -54.238281 104.472656 -55.355469 C 104.472656 -56.636719 103.511719 -56.875 102.472656 -56.875 C 98.234375 -56.875 89.996094 -49.195312 87.035156 -46.558594 C 80.792969 -40.957031 74.714844 -35.117188 68.554688 -29.359375 C 66.074219 -26.957031 63.515625 -24.558594 60.875 -22.238281 L 53.757812 -22.238281 C 53.277344 -22.238281 52.636719 -22.160156 52.636719 -21.519531 C 52.636719 -21.039062 53.4375 -20.957031 53.757812 -20.957031 Z M 67.4375 -22.238281 C 72.796875 -28.078125 78.074219 -33.996094 83.433594 -39.757812 C 86.234375 -42.878906 88.953125 -45.996094 91.996094 -48.875 C 93.992188 -50.796875 99.035156 -55.355469 101.914062 -55.355469 C 102.234375 -55.355469 102.472656 -55.355469 102.472656 -54.957031 C 102.472656 -54.476562 97.355469 -49.195312 96.714844 -48.476562 C 89.113281 -40.15625 81.914062 -31.4375 75.355469 -22.238281 Z M 59.195312 -39.757812 C 59.195312 -37.519531 58.476562 -35.199219 57.597656 -33.117188 C 54.078125 -24.878906 46.71875 -18.796875 38.957031 -14.640625 C 33.597656 -11.757812 26.636719 -9.519531 20.558594 -9.519531 C 17.4375 -9.519531 14.480469 -9.917969 11.4375 -10.640625 C 10.878906 -12.480469 10.558594 -13.839844 10.558594 -15.839844 C 10.558594 -27.277344 20.078125 -38.15625 29.4375 -43.675781 C 32.796875 -43.597656 36.558594 -43.277344 39.835938 -42.238281 C 40.636719 -41.996094 42.476562 -41.117188 43.277344 -41.117188 C 43.515625 -41.117188 43.675781 -41.277344 43.675781 -41.515625 C 43.675781 -43.515625 33.917969 -44.796875 32.15625 -44.957031 C 37.117188 -47.195312 41.996094 -48.636719 47.515625 -48.636719 C 53.035156 -48.636719 59.195312 -46.15625 59.195312 -39.757812 Z M 26.398438 -43.355469 C 17.839844 -37.359375 9.4375 -26.398438 9.4375 -15.519531 C 9.4375 -14 9.597656 -12.558594 10 -11.039062 C 5.28125 -13.121094 1.28125 -16.71875 1.28125 -22.238281 C 1.28125 -28.078125 5.441406 -34.398438 10.078125 -37.675781 C 14.800781 -41.039062 20.640625 -42.878906 26.398438 -43.355469 Z M 26.398438 -43.355469 "/></g></g></g><g fill="#1549e6" fill-opacity="1"><g transform="translate(378.936898, 67.077425)"><g><path d="M 15.679688 -17.199219 C 15.917969 -17.597656 16 -18.238281 16 -18.796875 C 16 -20.078125 13.839844 -21.199219 12.238281 -21.199219 C 7.839844 -21.199219 3.359375 -17.757812 0.320312 -14.878906 C -2.558594 -12.160156 -6.800781 -8.238281 -6.800781 -3.917969 C -6.800781 -1.359375 -5.441406 0 -2.878906 0 C 0.960938 0 4.558594 -3.441406 7.199219 -5.839844 C 6.878906 -5.039062 6.640625 -4.160156 6.640625 -3.28125 C 6.640625 -1.121094 8.320312 0.078125 10.320312 0.078125 C 14.320312 0.078125 20.160156 -6.398438 22.558594 -8.960938 C 22.957031 -9.359375 27.597656 -14.160156 27.597656 -14.480469 C 27.597656 -14.71875 27.4375 -14.878906 27.199219 -14.878906 C 25.917969 -14.878906 15.597656 -1.121094 10.558594 -1.121094 C 9.757812 -1.121094 9.199219 -1.761719 9.199219 -2.558594 C 9.199219 -3.441406 10.160156 -4.71875 10.640625 -5.359375 L 36.71875 -39.917969 L 32.957031 -39.917969 Z M 14.71875 -17.839844 C 14.71875 -14.398438 10.640625 -10.640625 8.398438 -8.398438 C 6.398438 -6.398438 0.71875 -1.28125 -2.320312 -1.28125 C -3.359375 -1.28125 -3.917969 -1.839844 -3.917969 -2.878906 C -3.917969 -5.839844 1.359375 -11.199219 3.28125 -13.199219 C 5.359375 -15.359375 9.4375 -19.917969 12.71875 -19.917969 C 14 -19.917969 14.71875 -19.117188 14.71875 -17.839844 Z M 14.71875 -17.839844 "/></g></g></g><g fill="#1549e6" fill-opacity="1"><g transform="translate(405.572199, 67.077425)"><g><path d="M 21.359375 -14.238281 C 21.359375 -14.398438 21.199219 -14.558594 21.039062 -14.558594 C 20.480469 -14.558594 19.117188 -13.039062 18.71875 -12.640625 C 15.277344 -9.199219 6.078125 -1.359375 0.878906 -1.359375 C -0.878906 -1.359375 -2.078125 -2.558594 -2.078125 -4.320312 C -2.078125 -5.519531 -1.519531 -6.480469 -0.878906 -7.441406 C 3.679688 -8.960938 14.800781 -12.800781 14.800781 -18.796875 C 14.800781 -20.480469 13.199219 -21.199219 11.757812 -21.199219 C 8.078125 -21.199219 2.320312 -17.277344 0 -14.71875 C -2.238281 -12.320312 -4.878906 -9.039062 -4.878906 -5.601562 C -4.878906 -2.558594 -2.320312 0 0.71875 0 C 6.878906 0 17.679688 -9.839844 21.359375 -14.238281 Z M 13.199219 -19.039062 C 13.199219 -16.957031 10.71875 -14.558594 9.28125 -13.359375 C 6.558594 -11.121094 3.039062 -9.917969 -0.160156 -8.71875 C 1.761719 -11.679688 7.917969 -20.238281 11.839844 -20.238281 C 12.558594 -20.238281 13.199219 -19.839844 13.199219 -19.039062 Z M 13.199219 -19.039062 "/></g></g></g><g fill="#1549e6" fill-opacity="1"><g transform="translate(426.288536, 67.077425)"><g><path d="M 37.519531 -46.878906 C 37.519531 -48.078125 36.558594 -49.195312 35.359375 -49.195312 C 33.519531 -49.195312 30.636719 -47.355469 29.277344 -46.316406 C 26.558594 -44.316406 23.917969 -42.316406 21.359375 -39.996094 C 15.359375 -34.558594 10.160156 -28 5.039062 -21.679688 C 2.238281 -18.238281 -5.757812 -8.480469 -5.757812 -3.679688 C -5.757812 -1.441406 -4.558594 0 -2.238281 0 C 3.121094 0 8.71875 -6.71875 11.917969 -10.398438 C 12.71875 -10.078125 13.597656 -9.839844 14.480469 -9.839844 C 16.558594 -9.839844 19.117188 -11.597656 20.558594 -13.039062 C 20.71875 -13.199219 21.757812 -14.238281 21.757812 -14.558594 C 21.757812 -14.800781 21.597656 -14.960938 21.359375 -14.960938 C 20.796875 -14.960938 17.757812 -10.960938 14.71875 -10.960938 C 14.078125 -10.960938 13.4375 -11.121094 12.800781 -11.359375 C 14.320312 -13.359375 16.71875 -16.320312 16.71875 -18.957031 C 16.71875 -20.078125 16.160156 -21.277344 14.878906 -21.277344 C 12.078125 -21.277344 9.597656 -17.597656 9.597656 -15.039062 C 9.597656 -13.4375 10.078125 -12.398438 11.121094 -11.199219 C 8.878906 -8.480469 2.640625 -1.441406 -1.199219 -1.441406 C -2.160156 -1.441406 -2.640625 -1.917969 -2.640625 -2.878906 C -2.640625 -5.839844 8 -19.917969 9.917969 -22.398438 C 16.558594 -24.878906 23.277344 -28.558594 28.398438 -33.4375 C 31.199219 -36.15625 37.519531 -42.71875 37.519531 -46.878906 Z M 36.398438 -46.71875 C 36.398438 -43.199219 29.4375 -36.15625 27.039062 -33.917969 C 21.917969 -29.199219 17.277344 -26.558594 10.878906 -23.839844 C 12.960938 -26.476562 14.960938 -29.039062 16.957031 -31.679688 C 18.796875 -34.15625 20.640625 -36.71875 22.878906 -38.957031 C 24.71875 -40.796875 32.398438 -48.15625 35.117188 -48.15625 C 35.996094 -48.15625 36.398438 -47.515625 36.398438 -46.71875 Z M 15.519531 -18.640625 C 15.519531 -16.71875 13.039062 -13.519531 11.917969 -12.078125 C 11.121094 -12.878906 10.800781 -13.597656 10.800781 -14.800781 C 10.800781 -16.640625 12.480469 -19.917969 14.558594 -19.917969 C 15.277344 -19.917969 15.519531 -19.277344 15.519531 -18.640625 Z M 15.519531 -18.640625 "/></g></g></g><g fill="#1549e6" fill-opacity="1"><g transform="translate(447.004872, 67.077425)"><g><path d="M 16.480469 -18.160156 C 16.558594 -18.398438 16.640625 -18.71875 16.640625 -18.957031 C 16.640625 -20.398438 14.71875 -20.796875 13.597656 -20.796875 C 6.71875 -20.796875 -6.480469 -11.839844 -6.480469 -4.398438 C -6.480469 -1.761719 -4.480469 0 -1.917969 0 C 1.121094 0 4.800781 -3.757812 6.878906 -5.679688 C 6.558594 -4.71875 6.160156 -3.519531 6.160156 -2.558594 C 6.160156 -0.800781 7.597656 0 9.199219 0 C 13.917969 0 21.917969 -7.28125 25.117188 -10.398438 C 25.679688 -10.878906 28.636719 -13.519531 28.636719 -14.160156 C 28.636719 -14.398438 28.558594 -14.558594 28.316406 -14.558594 C 27.917969 -14.558594 14.640625 -1.359375 10.558594 -1.359375 C 10 -1.359375 9.28125 -1.679688 9.28125 -2.398438 C 9.28125 -3.359375 11.757812 -6.640625 12.398438 -7.441406 L 22.796875 -20.558594 L 18.238281 -20.320312 Z M 15.039062 -18.078125 C 15.039062 -14.480469 1.519531 -0.960938 -1.917969 -0.960938 C -2.71875 -0.960938 -3.441406 -1.839844 -3.441406 -2.640625 C -3.441406 -5.601562 2.480469 -11.757812 4.398438 -13.679688 C 6.398438 -15.679688 10.320312 -19.679688 13.4375 -19.679688 C 14.320312 -19.679688 15.039062 -18.957031 15.039062 -18.078125 Z M 15.039062 -18.078125 "/></g></g></g><g fill="#1549e6" fill-opacity="1"><g transform="translate(475.159887, 67.077425)"><g><path d="M -4.71875 -0.640625 L -0.238281 -0.878906 C 4.238281 -5.679688 7.839844 -11.4375 12.960938 -15.679688 C 14.238281 -16.71875 18 -20.078125 19.839844 -20.078125 C 20.320312 -20.078125 20.71875 -19.679688 20.71875 -19.199219 C 20.71875 -16.640625 10.71875 -7.757812 10.71875 -3.441406 C 10.71875 -1.761719 12.238281 -0.238281 13.917969 -0.238281 C 19.519531 -0.238281 27.039062 -9.039062 30.71875 -12.878906 C 31.039062 -13.199219 31.917969 -14 31.917969 -14.398438 C 31.917969 -14.558594 31.839844 -14.878906 31.597656 -14.878906 C 30.878906 -14.878906 19.757812 -1.761719 15.277344 -1.761719 C 14.480469 -1.761719 14.160156 -2.238281 14.160156 -2.960938 C 14.160156 -6.71875 23.757812 -14.320312 23.757812 -18.796875 C 23.757812 -20.320312 22.558594 -21.359375 21.117188 -21.359375 C 17.519531 -21.359375 13.597656 -17.679688 10.960938 -15.519531 C 11.4375 -16.640625 12 -17.757812 12 -18.957031 C 12 -20.558594 10.960938 -21.757812 9.359375 -21.757812 C 6.878906 -21.757812 6.078125 -20.71875 4.398438 -19.039062 C 3.359375 -18 2.238281 -16.878906 1.199219 -15.839844 C 0.960938 -15.597656 -0.558594 -14.160156 -0.558594 -13.839844 C -0.558594 -13.679688 -0.480469 -13.4375 -0.238281 -13.4375 C 0.800781 -13.4375 6.078125 -20.238281 8.320312 -20.238281 C 8.960938 -20.238281 9.28125 -19.679688 9.28125 -19.117188 C 9.28125 -17.4375 5.121094 -12.640625 4.160156 -11.4375 Z M -4.71875 -0.640625 "/></g></g></g><g clip-path="url(#7741acba7d)"><g fill="#1549e6" fill-opacity="1"><g transform="translate(506.274384, 67.077425)"><g><path d="M 22.957031 -28.078125 C 22.957031 -29.039062 22.160156 -29.839844 21.199219 -29.839844 C 19.839844 -29.839844 18.398438 -28.558594 18.398438 -27.199219 C 18.398438 -26.160156 19.277344 -25.4375 20.238281 -25.4375 C 21.519531 -25.4375 22.957031 -26.71875 22.957031 -28.078125 Z M 4.238281 -0.800781 C 10.800781 -3.519531 17.917969 -7.28125 22.878906 -12.480469 C 23.199219 -12.800781 24.558594 -14.078125 24.558594 -14.558594 C 24.558594 -14.71875 24.398438 -14.878906 24.238281 -14.878906 C 23.839844 -14.878906 22.636719 -13.597656 22.558594 -13.519531 C 17.519531 -8.640625 12 -5.519531 5.601562 -2.878906 L 17.917969 -21.4375 C 13.277344 -20.71875 8.558594 -19.917969 4.398438 -17.679688 C 3.601562 -17.199219 -0.800781 -14.320312 -0.800781 -13.519531 C -0.800781 -13.277344 -0.640625 -13.277344 -0.480469 -13.277344 C 0.160156 -13.277344 1.917969 -14.800781 2.398438 -15.199219 C 5.28125 -17.359375 8.878906 -18.480469 12.398438 -19.117188 L 0.558594 -0.878906 C -4.480469 1.917969 -8.71875 5.28125 -12.71875 9.359375 C -15.519531 12.238281 -19.679688 16.957031 -19.679688 21.277344 C -19.679688 22.878906 -18.320312 24 -16.800781 24 C -13.039062 24 -6.800781 15.519531 -4.878906 12.71875 Z M -0.640625 1.121094 C -2.878906 5.679688 -11.839844 22.71875 -16.878906 22.71875 C -18.238281 22.71875 -18.320312 22 -18.320312 20.878906 C -18.320312 17.679688 -14.078125 12.800781 -12.078125 10.640625 C -8.71875 6.960938 -4.71875 4 -0.640625 1.121094 Z M -0.640625 1.121094 "/></g></g></g></g><g fill="#1549e6" fill-opacity="1"><g transform="translate(529.950203, 67.077425)"><g><path d="M 13.679688 -27.199219 C 13.679688 -28.078125 12.960938 -28.796875 12.078125 -28.796875 C 10.71875 -28.796875 9.4375 -27.597656 9.4375 -26.238281 C 9.4375 -25.359375 10.160156 -24.636719 11.039062 -24.636719 C 12.398438 -24.636719 13.679688 -25.839844 13.679688 -27.199219 Z M 2.078125 -17.359375 C -0.078125 -14.640625 -6.960938 -6.878906 -6.960938 -3.28125 C -6.960938 -1.359375 -5.28125 0 -3.441406 0 C 0.878906 0 10.878906 -9.597656 13.757812 -12.320312 C 14.160156 -12.71875 15.359375 -13.597656 15.359375 -14.160156 C 15.359375 -14.320312 15.277344 -14.558594 15.039062 -14.558594 C 14.71875 -14.558594 0.800781 -1.28125 -3.039062 -1.28125 C -3.757812 -1.28125 -4.160156 -1.679688 -4.160156 -2.398438 C -4.160156 -4.320312 0.71875 -10.160156 1.917969 -11.597656 L 9.597656 -21.117188 L 4.71875 -20.640625 Z M 2.078125 -17.359375 "/></g></g></g></g></g></svg>