<svg xmlns="http://www.w3.org/2000/svg" xmlns:xlink="http://www.w3.org/1999/xlink" width="800" zoomAndPan="magnify" viewBox="0 0 600 149.999998" height="200" preserveAspectRatio="xMidYMid meet" version="1.0"><defs><g/><clipPath id="1b8213e89d"><rect x="0" width="590" y="0" height="120"/></clipPath></defs><g transform="matrix(1, 0, 0, 1, 10, 15)"><g clip-path="url(#1b8213e89d)"><g fill="#1549e6" fill-opacity="1"><g transform="translate(0.336986, 82.165899)"><g><path d="M 15.359375 -46.546875 C 15.359375 -49.472656 15.914062 -52.035156 17.03125 -54.234375 C 18.15625 -56.441406 19.632812 -58.273438 21.46875 -59.734375 C 23.3125 -61.203125 25.421875 -62.304688 27.796875 -63.046875 C 30.179688 -63.785156 32.644531 -64.15625 35.1875 -64.15625 C 37.96875 -64.15625 40.300781 -63.71875 42.1875 -62.84375 C 44.082031 -61.976562 45.609375 -60.867188 46.765625 -59.515625 C 47.921875 -58.171875 48.742188 -56.6875 49.234375 -55.0625 C 49.722656 -53.4375 49.96875 -51.867188 49.96875 -50.359375 C 49.96875 -49.535156 49.921875 -48.867188 49.828125 -48.359375 C 49.742188 -47.859375 49.703125 -47.578125 49.703125 -47.515625 L 47.96875 -47.703125 C 48 -47.941406 48.03125 -48.207031 48.0625 -48.5 C 48.082031 -48.738281 48.097656 -49.019531 48.109375 -49.34375 C 48.128906 -49.664062 48.140625 -50.035156 48.140625 -50.453125 C 48.140625 -51.785156 47.941406 -53.160156 47.546875 -54.578125 C 47.148438 -55.992188 46.460938 -57.28125 45.484375 -58.4375 C 44.503906 -59.59375 43.175781 -60.546875 41.5 -61.296875 C 39.832031 -62.054688 37.726562 -62.4375 35.1875 -62.4375 C 32.96875 -62.4375 30.910156 -62.054688 29.015625 -61.296875 C 27.128906 -60.546875 25.503906 -59.507812 24.140625 -58.1875 C 22.773438 -56.875 21.707031 -55.335938 20.9375 -53.578125 C 20.175781 -51.816406 19.796875 -49.914062 19.796875 -47.875 C 19.796875 -45.832031 20.140625 -43.960938 20.828125 -42.265625 C 21.523438 -40.566406 22.492188 -39.082031 23.734375 -37.8125 C 25.066406 -38.25 26.398438 -38.597656 27.734375 -38.859375 C 29.066406 -39.128906 30.425781 -39.265625 31.8125 -39.265625 C 32.820312 -39.265625 33.75 -39.179688 34.59375 -39.015625 C 35.4375 -38.859375 36.164062 -38.617188 36.78125 -38.296875 C 37.40625 -37.972656 37.894531 -37.582031 38.25 -37.125 C 38.601562 -36.664062 38.78125 -36.140625 38.78125 -35.546875 C 38.78125 -34.710938 38.503906 -34.054688 37.953125 -33.578125 C 37.410156 -33.109375 36.757812 -32.753906 36 -32.515625 C 35.25 -32.285156 34.46875 -32.140625 33.65625 -32.078125 C 32.84375 -32.023438 32.171875 -32 31.640625 -32 C 29.710938 -32 27.882812 -32.253906 26.15625 -32.765625 C 24.425781 -33.285156 22.851562 -34.019531 21.4375 -34.96875 C 19.71875 -34.101562 18.09375 -33.019531 16.5625 -31.71875 C 15.039062 -30.425781 13.71875 -28.910156 12.59375 -27.171875 C 11.476562 -25.441406 10.585938 -23.507812 9.921875 -21.375 C 9.253906 -19.25 8.921875 -16.945312 8.921875 -14.46875 C 8.921875 -12.039062 9.253906 -9.910156 9.921875 -8.078125 C 10.585938 -6.242188 11.457031 -4.664062 12.53125 -3.34375 C 13.613281 -2.03125 14.859375 -0.929688 16.265625 -0.046875 C 17.671875 0.835938 19.113281 1.539062 20.59375 2.0625 C 22.070312 2.582031 23.523438 2.945312 24.953125 3.15625 C 26.390625 3.363281 27.703125 3.46875 28.890625 3.46875 C 32.734375 3.46875 36.175781 2.851562 39.21875 1.625 C 42.269531 0.394531 44.875 -1.257812 47.03125 -3.34375 C 49.195312 -5.4375 50.882812 -7.875 52.09375 -10.65625 C 53.300781 -13.4375 53.992188 -16.363281 54.171875 -19.4375 L 55.90625 -19.34375 C 55.820312 -16.769531 55.359375 -14.335938 54.515625 -12.046875 C 53.671875 -9.753906 52.535156 -7.628906 51.109375 -5.671875 C 49.691406 -3.722656 48.035156 -1.972656 46.140625 -0.421875 C 44.253906 1.128906 42.203125 2.453125 39.984375 3.546875 C 37.765625 4.640625 35.425781 5.472656 32.96875 6.046875 C 30.507812 6.628906 28.023438 6.921875 25.515625 6.921875 C 22.617188 6.921875 19.84375 6.515625 17.1875 5.703125 C 14.539062 4.890625 12.210938 3.679688 10.203125 2.078125 C 8.191406 0.484375 6.59375 -1.484375 5.40625 -3.828125 C 4.226562 -6.179688 3.640625 -8.898438 3.640625 -11.984375 C 3.640625 -14.617188 4.066406 -17.15625 4.921875 -19.59375 C 5.785156 -22.03125 6.945312 -24.296875 8.40625 -26.390625 C 9.875 -28.492188 11.597656 -30.378906 13.578125 -32.046875 C 15.554688 -33.722656 17.671875 -35.125 19.921875 -36.25 C 18.503906 -37.519531 17.390625 -39.019531 16.578125 -40.75 C 15.765625 -42.488281 15.359375 -44.421875 15.359375 -46.546875 Z M 31.8125 -37.546875 C 29.65625 -37.546875 27.46875 -37.203125 25.25 -36.515625 C 26.34375 -35.691406 27.597656 -35.0625 29.015625 -34.625 C 30.441406 -34.195312 31.984375 -33.984375 33.640625 -33.984375 C 34.734375 -33.984375 35.582031 -34.140625 36.1875 -34.453125 C 36.789062 -34.765625 37.09375 -35.128906 37.09375 -35.546875 C 37.09375 -35.984375 36.625 -36.425781 35.6875 -36.875 C 34.757812 -37.320312 33.46875 -37.546875 31.8125 -37.546875 Z M 31.8125 -37.546875 "/></g></g></g><g fill="#1549e6" fill-opacity="1"><g transform="translate(58.02122, 82.165899)"><g><path d="M 4.171875 -21.703125 C 5.117188 -24.484375 6.140625 -26.5625 7.234375 -27.9375 C 8.328125 -29.3125 9.613281 -30 11.09375 -30 C 11.738281 -30 12.347656 -29.847656 12.921875 -29.546875 C 13.503906 -29.253906 14.015625 -28.773438 14.453125 -28.109375 C 14.898438 -27.441406 15.25 -26.578125 15.5 -25.515625 C 15.757812 -24.453125 15.890625 -23.148438 15.890625 -21.609375 C 17.210938 -25.015625 18.554688 -27.441406 19.921875 -28.890625 C 21.285156 -30.335938 22.765625 -31.0625 24.359375 -31.0625 C 24.953125 -31.0625 25.550781 -30.941406 26.15625 -30.703125 C 26.757812 -30.460938 27.304688 -30.039062 27.796875 -29.4375 C 28.285156 -28.832031 28.691406 -28.007812 29.015625 -26.96875 C 29.335938 -25.9375 29.515625 -24.640625 29.546875 -23.078125 C 30.347656 -24.640625 31.347656 -25.910156 32.546875 -26.890625 C 33.742188 -27.867188 35.066406 -28.359375 36.515625 -28.359375 C 37.222656 -28.359375 37.929688 -28.226562 38.640625 -27.96875 C 39.359375 -27.71875 39.988281 -27.296875 40.53125 -26.703125 C 41.082031 -26.117188 41.535156 -25.34375 41.890625 -24.375 C 42.242188 -23.414062 42.421875 -22.226562 42.421875 -20.8125 C 42.421875 -20.394531 42.390625 -19.851562 42.328125 -19.1875 C 42.273438 -18.519531 42.203125 -17.785156 42.109375 -16.984375 C 42.015625 -16.191406 41.921875 -15.378906 41.828125 -14.546875 C 41.742188 -13.722656 41.65625 -12.945312 41.5625 -12.21875 C 41.476562 -11.5 41.40625 -10.863281 41.34375 -10.3125 C 41.289062 -9.769531 41.265625 -9.394531 41.265625 -9.1875 C 41.265625 -7.4375 41.472656 -6.160156 41.890625 -5.359375 C 42.304688 -4.566406 43.0625 -4.171875 44.15625 -4.171875 C 44.976562 -4.171875 45.816406 -4.664062 46.671875 -5.65625 C 47.535156 -6.644531 48.410156 -7.953125 49.296875 -9.578125 C 50.179688 -11.210938 51.082031 -13.078125 52 -15.171875 C 52.914062 -17.273438 53.847656 -19.453125 54.796875 -21.703125 L 56.53125 -21.25 C 55.675781 -19.207031 54.789062 -17.046875 53.875 -14.765625 C 52.957031 -12.492188 51.957031 -10.394531 50.875 -8.46875 C 49.789062 -6.550781 48.628906 -4.960938 47.390625 -3.703125 C 46.148438 -2.441406 44.773438 -1.8125 43.265625 -1.8125 C 41.515625 -1.8125 40.179688 -2.328125 39.265625 -3.359375 C 38.347656 -4.398438 37.890625 -6.132812 37.890625 -8.5625 C 37.890625 -9.625 37.960938 -10.753906 38.109375 -11.953125 C 38.265625 -13.148438 38.4375 -14.347656 38.625 -15.546875 C 38.820312 -16.742188 38.992188 -17.910156 39.140625 -19.046875 C 39.285156 -20.191406 39.359375 -21.238281 39.359375 -22.1875 C 39.359375 -22.71875 39.3125 -23.25 39.21875 -23.78125 C 39.132812 -24.3125 38.976562 -24.789062 38.75 -25.21875 C 38.53125 -25.65625 38.234375 -26 37.859375 -26.25 C 37.492188 -26.5 37.019531 -26.625 36.4375 -26.625 C 35.695312 -26.625 34.984375 -26.269531 34.296875 -25.5625 C 33.617188 -24.851562 32.96875 -23.90625 32.34375 -22.71875 C 31.726562 -21.53125 31.148438 -20.175781 30.609375 -18.65625 C 30.078125 -17.132812 29.601562 -15.566406 29.1875 -13.953125 C 28.78125 -12.335938 28.410156 -10.738281 28.078125 -9.15625 C 27.753906 -7.570312 27.503906 -6.132812 27.328125 -4.84375 L 24.1875 -5.375 C 24.1875 -5.375 24.257812 -5.734375 24.40625 -6.453125 C 24.550781 -7.179688 24.71875 -8.113281 24.90625 -9.25 C 25.101562 -10.382812 25.316406 -11.671875 25.546875 -13.109375 C 25.785156 -14.546875 26 -15.988281 26.1875 -17.4375 C 26.382812 -18.882812 26.550781 -20.273438 26.6875 -21.609375 C 26.820312 -22.941406 26.890625 -24.066406 26.890625 -24.984375 C 26.890625 -26.222656 26.648438 -27.238281 26.171875 -28.03125 C 25.703125 -28.832031 25.007812 -29.234375 24.09375 -29.234375 C 23.238281 -29.234375 22.414062 -28.742188 21.625 -27.765625 C 20.84375 -26.796875 20.113281 -25.519531 19.4375 -23.9375 C 18.757812 -22.351562 18.125 -20.5625 17.53125 -18.5625 C 16.9375 -16.570312 16.382812 -14.5625 15.875 -12.53125 C 15.375 -10.507812 14.929688 -8.566406 14.546875 -6.703125 C 14.171875 -4.835938 13.832031 -3.238281 13.53125 -1.90625 L 10.5625 -2.625 C 10.976562 -4.664062 11.347656 -6.734375 11.671875 -8.828125 C 11.960938 -10.628906 12.226562 -12.609375 12.46875 -14.765625 C 12.707031 -16.929688 12.828125 -19.035156 12.828125 -21.078125 C 12.828125 -22.378906 12.796875 -23.460938 12.734375 -24.328125 C 12.671875 -25.203125 12.550781 -25.90625 12.375 -26.4375 C 12.195312 -26.976562 11.953125 -27.359375 11.640625 -27.578125 C 11.335938 -27.796875 10.945312 -27.90625 10.46875 -27.90625 C 9.726562 -27.90625 8.972656 -27.375 8.203125 -26.3125 C 7.441406 -25.25 6.675781 -23.5625 5.90625 -21.25 Z M 4.171875 -21.703125 "/></g></g></g><g fill="#1549e6" fill-opacity="1"><g transform="translate(108.650241, 82.165899)"><g><path d="M 4.171875 -21.703125 C 5.117188 -24.484375 6.140625 -26.5625 7.234375 -27.9375 C 8.328125 -29.3125 9.613281 -30 11.09375 -30 C 11.738281 -30 12.347656 -29.847656 12.921875 -29.546875 C 13.503906 -29.253906 14.015625 -28.773438 14.453125 -28.109375 C 14.898438 -27.441406 15.25 -26.578125 15.5 -25.515625 C 15.757812 -24.453125 15.890625 -23.148438 15.890625 -21.609375 C 17.210938 -25.015625 18.554688 -27.441406 19.921875 -28.890625 C 21.285156 -30.335938 22.765625 -31.0625 24.359375 -31.0625 C 24.953125 -31.0625 25.550781 -30.941406 26.15625 -30.703125 C 26.757812 -30.460938 27.304688 -30.039062 27.796875 -29.4375 C 28.285156 -28.832031 28.691406 -28.007812 29.015625 -26.96875 C 29.335938 -25.9375 29.515625 -24.640625 29.546875 -23.078125 C 30.347656 -24.640625 31.347656 -25.910156 32.546875 -26.890625 C 33.742188 -27.867188 35.066406 -28.359375 36.515625 -28.359375 C 37.222656 -28.359375 37.929688 -28.226562 38.640625 -27.96875 C 39.359375 -27.71875 39.988281 -27.296875 40.53125 -26.703125 C 41.082031 -26.117188 41.535156 -25.34375 41.890625 -24.375 C 42.242188 -23.414062 42.421875 -22.226562 42.421875 -20.8125 C 42.421875 -20.394531 42.390625 -19.851562 42.328125 -19.1875 C 42.273438 -18.519531 42.203125 -17.785156 42.109375 -16.984375 C 42.015625 -16.191406 41.921875 -15.378906 41.828125 -14.546875 C 41.742188 -13.722656 41.65625 -12.945312 41.5625 -12.21875 C 41.476562 -11.5 41.40625 -10.863281 41.34375 -10.3125 C 41.289062 -9.769531 41.265625 -9.394531 41.265625 -9.1875 C 41.265625 -7.4375 41.472656 -6.160156 41.890625 -5.359375 C 42.304688 -4.566406 43.0625 -4.171875 44.15625 -4.171875 C 44.976562 -4.171875 45.816406 -4.664062 46.671875 -5.65625 C 47.535156 -6.644531 48.410156 -7.953125 49.296875 -9.578125 C 50.179688 -11.210938 51.082031 -13.078125 52 -15.171875 C 52.914062 -17.273438 53.847656 -19.453125 54.796875 -21.703125 L 56.53125 -21.25 C 55.675781 -19.207031 54.789062 -17.046875 53.875 -14.765625 C 52.957031 -12.492188 51.957031 -10.394531 50.875 -8.46875 C 49.789062 -6.550781 48.628906 -4.960938 47.390625 -3.703125 C 46.148438 -2.441406 44.773438 -1.8125 43.265625 -1.8125 C 41.515625 -1.8125 40.179688 -2.328125 39.265625 -3.359375 C 38.347656 -4.398438 37.890625 -6.132812 37.890625 -8.5625 C 37.890625 -9.625 37.960938 -10.753906 38.109375 -11.953125 C 38.265625 -13.148438 38.4375 -14.347656 38.625 -15.546875 C 38.820312 -16.742188 38.992188 -17.910156 39.140625 -19.046875 C 39.285156 -20.191406 39.359375 -21.238281 39.359375 -22.1875 C 39.359375 -22.71875 39.3125 -23.25 39.21875 -23.78125 C 39.132812 -24.3125 38.976562 -24.789062 38.75 -25.21875 C 38.53125 -25.65625 38.234375 -26 37.859375 -26.25 C 37.492188 -26.5 37.019531 -26.625 36.4375 -26.625 C 35.695312 -26.625 34.984375 -26.269531 34.296875 -25.5625 C 33.617188 -24.851562 32.96875 -23.90625 32.34375 -22.71875 C 31.726562 -21.53125 31.148438 -20.175781 30.609375 -18.65625 C 30.078125 -17.132812 29.601562 -15.566406 29.1875 -13.953125 C 28.78125 -12.335938 28.410156 -10.738281 28.078125 -9.15625 C 27.753906 -7.570312 27.503906 -6.132812 27.328125 -4.84375 L 24.1875 -5.375 C 24.1875 -5.375 24.257812 -5.734375 24.40625 -6.453125 C 24.550781 -7.179688 24.71875 -8.113281 24.90625 -9.25 C 25.101562 -10.382812 25.316406 -11.671875 25.546875 -13.109375 C 25.785156 -14.546875 26 -15.988281 26.1875 -17.4375 C 26.382812 -18.882812 26.550781 -20.273438 26.6875 -21.609375 C 26.820312 -22.941406 26.890625 -24.066406 26.890625 -24.984375 C 26.890625 -26.222656 26.648438 -27.238281 26.171875 -28.03125 C 25.703125 -28.832031 25.007812 -29.234375 24.09375 -29.234375 C 23.238281 -29.234375 22.414062 -28.742188 21.625 -27.765625 C 20.84375 -26.796875 20.113281 -25.519531 19.4375 -23.9375 C 18.757812 -22.351562 18.125 -20.5625 17.53125 -18.5625 C 16.9375 -16.570312 16.382812 -14.5625 15.875 -12.53125 C 15.375 -10.507812 14.929688 -8.566406 14.546875 -6.703125 C 14.171875 -4.835938 13.832031 -3.238281 13.53125 -1.90625 L 10.5625 -2.625 C 10.976562 -4.664062 11.347656 -6.734375 11.671875 -8.828125 C 11.960938 -10.628906 12.226562 -12.609375 12.46875 -14.765625 C 12.707031 -16.929688 12.828125 -19.035156 12.828125 -21.078125 C 12.828125 -22.378906 12.796875 -23.460938 12.734375 -24.328125 C 12.671875 -25.203125 12.550781 -25.90625 12.375 -26.4375 C 12.195312 -26.976562 11.953125 -27.359375 11.640625 -27.578125 C 11.335938 -27.796875 10.945312 -27.90625 10.46875 -27.90625 C 9.726562 -27.90625 8.972656 -27.375 8.203125 -26.3125 C 7.441406 -25.25 6.675781 -23.5625 5.90625 -21.25 Z M 4.171875 -21.703125 "/></g></g></g><g fill="#1549e6" fill-opacity="1"><g transform="translate(159.279262, 82.165899)"><g><path d="M 38.34375 -21.25 C 37.125 -17.96875 36.019531 -15.21875 35.03125 -13 C 34.039062 -10.78125 33.078125 -8.988281 32.140625 -7.625 C 31.210938 -6.269531 30.289062 -5.296875 29.375 -4.703125 C 28.457031 -4.109375 27.453125 -3.8125 26.359375 -3.8125 C 25.023438 -3.8125 23.882812 -4.273438 22.9375 -5.203125 C 21.988281 -6.140625 21.398438 -7.585938 21.171875 -9.546875 C 20.222656 -7.503906 18.992188 -5.835938 17.484375 -4.546875 C 15.972656 -3.265625 14.078125 -2.625 11.796875 -2.625 C 10.585938 -2.625 9.425781 -2.84375 8.3125 -3.28125 C 7.207031 -3.726562 6.222656 -4.414062 5.359375 -5.34375 C 4.503906 -6.28125 3.816406 -7.457031 3.296875 -8.875 C 2.785156 -10.289062 2.53125 -11.960938 2.53125 -13.890625 C 2.53125 -15.835938 2.773438 -17.671875 3.265625 -19.390625 C 3.753906 -21.109375 4.394531 -22.679688 5.1875 -24.109375 C 5.988281 -25.546875 6.914062 -26.828125 7.96875 -27.953125 C 9.019531 -29.078125 10.101562 -30.023438 11.21875 -30.796875 C 12.34375 -31.566406 13.46875 -32.15625 14.59375 -32.5625 C 15.71875 -32.976562 16.753906 -33.1875 17.703125 -33.1875 C 18.535156 -33.1875 19.332031 -33.082031 20.09375 -32.875 C 20.863281 -32.664062 21.550781 -32.332031 22.15625 -31.875 C 22.769531 -31.414062 23.257812 -30.800781 23.625 -30.03125 C 24 -29.269531 24.1875 -28.3125 24.1875 -27.15625 C 24.1875 -25.789062 23.925781 -24.601562 23.40625 -23.59375 C 22.882812 -22.59375 22.257812 -21.753906 21.53125 -21.078125 C 20.8125 -20.398438 20.070312 -19.851562 19.3125 -19.4375 C 18.5625 -19.019531 17.96875 -18.722656 17.53125 -18.546875 L 17 -20.28125 C 17.082031 -20.28125 17.410156 -20.394531 17.984375 -20.625 C 18.566406 -20.863281 19.175781 -21.253906 19.8125 -21.796875 C 20.445312 -22.347656 21.03125 -23.050781 21.5625 -23.90625 C 22.09375 -24.769531 22.359375 -25.820312 22.359375 -27.0625 C 22.359375 -28.488281 21.957031 -29.578125 21.15625 -30.328125 C 20.363281 -31.078125 19.347656 -31.453125 18.109375 -31.453125 C 17.160156 -31.453125 16.050781 -31.113281 14.78125 -30.4375 C 13.507812 -29.757812 12.285156 -28.695312 11.109375 -27.25 C 9.941406 -25.800781 8.953125 -23.96875 8.140625 -21.75 C 7.328125 -19.53125 6.921875 -16.878906 6.921875 -13.796875 C 6.921875 -10.753906 7.457031 -8.429688 8.53125 -6.828125 C 9.613281 -5.234375 11.070312 -4.4375 12.90625 -4.4375 C 13.820312 -4.4375 14.703125 -4.691406 15.546875 -5.203125 C 16.390625 -5.722656 17.164062 -6.410156 17.875 -7.265625 C 18.59375 -8.128906 19.234375 -9.128906 19.796875 -10.265625 C 20.359375 -11.410156 20.84375 -12.585938 21.25 -13.796875 C 21.25 -14.742188 21.359375 -15.859375 21.578125 -17.140625 C 21.804688 -18.429688 22.15625 -19.742188 22.625 -21.078125 L 25.34375 -20.1875 C 25.1875 -19.800781 25.035156 -19.296875 24.890625 -18.671875 C 24.742188 -18.054688 24.601562 -17.378906 24.46875 -16.640625 C 24.332031 -15.898438 24.21875 -15.132812 24.125 -14.34375 C 24.039062 -13.5625 24 -12.800781 24 -12.0625 C 24 -9.757812 24.226562 -8.171875 24.6875 -7.296875 C 25.144531 -6.421875 25.9375 -5.984375 27.0625 -5.984375 C 27.71875 -5.984375 28.363281 -6.21875 29 -6.6875 C 29.632812 -7.164062 30.320312 -7.992188 31.0625 -9.171875 C 31.800781 -10.359375 32.613281 -11.96875 33.5 -14 C 34.382812 -16.03125 35.421875 -18.597656 36.609375 -21.703125 Z M 38.34375 -21.25 "/></g></g></g><g fill="#1549e6" fill-opacity="1"><g transform="translate(191.715564, 82.165899)"><g><path d="M 4.171875 -21.703125 C 4.617188 -22.847656 5.097656 -23.945312 5.609375 -25 C 6.128906 -26.050781 6.6875 -26.972656 7.28125 -27.765625 C 7.875 -28.566406 8.515625 -29.210938 9.203125 -29.703125 C 9.898438 -30.191406 10.675781 -30.4375 11.53125 -30.4375 C 11.945312 -30.4375 12.421875 -30.347656 12.953125 -30.171875 C 13.484375 -29.992188 13.992188 -29.640625 14.484375 -29.109375 C 14.972656 -28.578125 15.378906 -27.804688 15.703125 -26.796875 C 16.035156 -25.796875 16.203125 -24.46875 16.203125 -22.8125 C 16.203125 -21.945312 16.15625 -21 16.0625 -19.96875 C 15.976562 -18.9375 15.890625 -17.914062 15.796875 -16.90625 C 16.710938 -18.851562 17.617188 -20.5 18.515625 -21.84375 C 19.421875 -23.195312 20.3125 -24.28125 21.1875 -25.09375 C 22.0625 -25.90625 22.925781 -26.492188 23.78125 -26.859375 C 24.644531 -27.234375 25.503906 -27.421875 26.359375 -27.421875 C 26.742188 -27.421875 27.191406 -27.332031 27.703125 -27.15625 C 28.222656 -26.976562 28.710938 -26.664062 29.171875 -26.21875 C 29.628906 -25.78125 30.015625 -25.175781 30.328125 -24.40625 C 30.640625 -23.632812 30.796875 -22.644531 30.796875 -21.4375 C 30.796875 -20.457031 30.71875 -19.476562 30.5625 -18.5 C 30.414062 -17.53125 30.253906 -16.582031 30.078125 -15.65625 C 29.898438 -14.738281 29.738281 -13.875 29.59375 -13.0625 C 29.445312 -12.25 29.375 -11.535156 29.375 -10.921875 C 29.375 -9.441406 29.640625 -8.304688 30.171875 -7.515625 C 30.703125 -6.734375 31.515625 -6.34375 32.609375 -6.34375 C 33.492188 -6.34375 34.335938 -6.675781 35.140625 -7.34375 C 35.941406 -8.007812 36.6875 -8.859375 37.375 -9.890625 C 38.070312 -10.929688 38.707031 -12.070312 39.28125 -13.3125 C 39.863281 -14.550781 40.367188 -15.738281 40.796875 -16.875 C 41.222656 -18.019531 41.582031 -19.023438 41.875 -19.890625 C 42.175781 -20.765625 42.390625 -21.367188 42.515625 -21.703125 L 44.234375 -21.25 C 43.828125 -20.21875 43.394531 -19.070312 42.9375 -17.8125 C 42.476562 -16.5625 41.96875 -15.296875 41.40625 -14.015625 C 40.84375 -12.742188 40.234375 -11.507812 39.578125 -10.3125 C 38.929688 -9.113281 38.207031 -8.054688 37.40625 -7.140625 C 36.601562 -6.222656 35.734375 -5.484375 34.796875 -4.921875 C 33.867188 -4.359375 32.84375 -4.078125 31.71875 -4.078125 C 30.78125 -4.078125 29.960938 -4.257812 29.265625 -4.625 C 28.566406 -5 27.976562 -5.5 27.5 -6.125 C 27.03125 -6.75 26.675781 -7.488281 26.4375 -8.34375 C 26.207031 -9.195312 26.09375 -10.113281 26.09375 -11.09375 C 26.09375 -12.1875 26.1875 -13.3125 26.375 -14.46875 C 26.570312 -15.625 26.78125 -16.734375 27 -17.796875 C 27.21875 -18.859375 27.421875 -19.835938 27.609375 -20.734375 C 27.804688 -21.640625 27.90625 -22.390625 27.90625 -22.984375 C 27.90625 -23.898438 27.726562 -24.585938 27.375 -25.046875 C 27.019531 -25.503906 26.53125 -25.734375 25.90625 -25.734375 C 25.050781 -25.734375 24.21875 -25.421875 23.40625 -24.796875 C 22.59375 -24.179688 21.804688 -23.351562 21.046875 -22.3125 C 20.296875 -21.28125 19.578125 -20.097656 18.890625 -18.765625 C 18.210938 -17.429688 17.585938 -16.0625 17.015625 -14.65625 C 16.441406 -13.257812 15.910156 -11.863281 15.421875 -10.46875 C 14.929688 -9.082031 14.507812 -7.828125 14.15625 -6.703125 C 13.800781 -5.578125 13.5 -4.617188 13.25 -3.828125 C 13 -3.046875 12.828125 -2.554688 12.734375 -2.359375 L 10.15625 -2.796875 C 10.507812 -4.535156 10.832031 -6.375 11.125 -8.3125 C 11.425781 -10.25 11.6875 -12.15625 11.90625 -14.03125 C 12.132812 -15.914062 12.3125 -17.71875 12.4375 -19.4375 C 12.570312 -21.15625 12.640625 -22.675781 12.640625 -24 C 12.640625 -25.8125 12.519531 -27.035156 12.28125 -27.671875 C 12.050781 -28.304688 11.625 -28.625 11 -28.625 C 10.46875 -28.625 9.960938 -28.421875 9.484375 -28.015625 C 9.015625 -27.617188 8.582031 -27.085938 8.1875 -26.421875 C 7.789062 -25.753906 7.398438 -24.976562 7.015625 -24.09375 C 6.628906 -23.207031 6.257812 -22.257812 5.90625 -21.25 Z M 4.171875 -21.703125 "/></g></g></g><g fill="#1549e6" fill-opacity="1"><g transform="translate(230.053393, 82.165899)"><g><path d="M 21.171875 -10.25 C 20.253906 -8.59375 19.363281 -7.21875 18.5 -6.125 C 17.644531 -5.03125 16.796875 -4.15625 15.953125 -3.5 C 15.109375 -2.851562 14.253906 -2.394531 13.390625 -2.125 C 12.535156 -1.863281 11.648438 -1.734375 10.734375 -1.734375 C 9.992188 -1.734375 9.148438 -1.847656 8.203125 -2.078125 C 7.253906 -2.316406 6.359375 -2.8125 5.515625 -3.5625 C 4.679688 -4.320312 3.972656 -5.410156 3.390625 -6.828125 C 2.816406 -8.253906 2.53125 -10.164062 2.53125 -12.5625 C 2.53125 -14.957031 2.8125 -17.210938 3.375 -19.328125 C 3.9375 -21.441406 4.554688 -23.296875 5.234375 -24.890625 C 6.035156 -26.722656 6.953125 -28.425781 7.984375 -30 L 9.625 -29.46875 C 9.59375 -29.4375 9.492188 -29.164062 9.328125 -28.65625 C 9.171875 -28.15625 8.96875 -27.476562 8.71875 -26.625 C 8.46875 -25.769531 8.203125 -24.78125 7.921875 -23.65625 C 7.640625 -22.53125 7.375 -21.335938 7.125 -20.078125 C 6.875 -18.816406 6.664062 -17.535156 6.5 -16.234375 C 6.332031 -14.929688 6.25 -13.675781 6.25 -12.46875 C 6.25 -9.6875 6.742188 -7.488281 7.734375 -5.875 C 8.734375 -4.269531 10.03125 -3.46875 11.625 -3.46875 C 13.394531 -3.46875 15.109375 -4.492188 16.765625 -6.546875 C 18.421875 -8.597656 20.003906 -11.472656 21.515625 -15.171875 C 21.785156 -16.890625 22.148438 -18.488281 22.609375 -19.96875 C 23.066406 -21.445312 23.523438 -22.757812 23.984375 -23.90625 C 24.441406 -25.0625 24.863281 -26.023438 25.25 -26.796875 C 25.632812 -27.566406 25.914062 -28.085938 26.09375 -28.359375 L 27.640625 -28 C 27.171875 -25.78125 26.765625 -23.789062 26.421875 -22.03125 C 26.078125 -20.269531 25.800781 -18.675781 25.59375 -17.25 C 25.394531 -15.832031 25.242188 -14.566406 25.140625 -13.453125 C 25.035156 -12.347656 24.984375 -11.351562 24.984375 -10.46875 C 24.984375 -8.695312 25.265625 -7.273438 25.828125 -6.203125 C 26.390625 -5.140625 27.257812 -4.609375 28.4375 -4.609375 C 29.238281 -4.609375 30.007812 -4.90625 30.75 -5.5 C 31.488281 -6.09375 32.253906 -7.066406 33.046875 -8.421875 C 33.847656 -9.785156 34.691406 -11.546875 35.578125 -13.703125 C 36.472656 -15.867188 37.484375 -18.535156 38.609375 -21.703125 L 40.328125 -21.25 C 39.828125 -20.007812 39.328125 -18.675781 38.828125 -17.25 C 38.328125 -15.832031 37.785156 -14.414062 37.203125 -13 C 36.628906 -11.582031 36.023438 -10.222656 35.390625 -8.921875 C 34.753906 -7.617188 34.039062 -6.460938 33.25 -5.453125 C 32.46875 -4.453125 31.617188 -3.65625 30.703125 -3.0625 C 29.785156 -2.46875 28.765625 -2.171875 27.640625 -2.171875 C 26.578125 -2.171875 25.644531 -2.378906 24.84375 -2.796875 C 24.050781 -3.210938 23.378906 -3.773438 22.828125 -4.484375 C 22.285156 -5.191406 21.875 -6.039062 21.59375 -7.03125 C 21.3125 -8.019531 21.171875 -9.09375 21.171875 -10.25 Z M 21.171875 -10.25 "/></g></g></g><g fill="#1549e6" fill-opacity="1"><g transform="translate(264.486443, 82.165899)"><g><path d="M 13.890625 -0.625 C 12.378906 -0.625 10.925781 -0.890625 9.53125 -1.421875 C 8.144531 -1.953125 6.925781 -2.753906 5.875 -3.828125 C 4.820312 -4.910156 3.984375 -6.265625 3.359375 -7.890625 C 2.742188 -9.523438 2.4375 -11.4375 2.4375 -13.625 C 2.4375 -16.28125 2.820312 -18.648438 3.59375 -20.734375 C 4.363281 -22.828125 5.347656 -24.585938 6.546875 -26.015625 C 7.742188 -27.453125 9.082031 -28.546875 10.5625 -29.296875 C 12.039062 -30.054688 13.488281 -30.4375 14.90625 -30.4375 C 16.738281 -30.4375 18.195312 -29.828125 19.28125 -28.609375 C 20.363281 -27.398438 20.90625 -25.835938 20.90625 -23.921875 C 20.90625 -22.265625 20.59375 -20.757812 19.96875 -19.40625 C 19.34375 -18.0625 18.519531 -16.910156 17.5 -15.953125 C 16.476562 -14.992188 15.3125 -14.242188 14 -13.703125 C 12.6875 -13.171875 11.316406 -12.90625 9.890625 -12.90625 C 9.210938 -12.90625 8.570312 -12.941406 7.96875 -13.015625 C 7.363281 -13.097656 6.820312 -13.179688 6.34375 -13.265625 C 6.519531 -11.429688 6.875 -9.847656 7.40625 -8.515625 C 7.9375 -7.179688 8.601562 -6.085938 9.40625 -5.234375 C 10.207031 -4.378906 11.101562 -3.742188 12.09375 -3.328125 C 13.082031 -2.910156 14.109375 -2.703125 15.171875 -2.703125 C 16.503906 -2.703125 17.734375 -3.023438 18.859375 -3.671875 C 19.984375 -4.328125 21.019531 -5.179688 21.96875 -6.234375 C 22.914062 -7.285156 23.78125 -8.488281 24.5625 -9.84375 C 25.34375 -11.207031 26.039062 -12.59375 26.65625 -14 C 27.28125 -15.40625 27.835938 -16.78125 28.328125 -18.125 C 28.816406 -19.46875 29.253906 -20.660156 29.640625 -21.703125 L 31.375 -21.25 C 30.988281 -20.28125 30.535156 -19.097656 30.015625 -17.703125 C 29.492188 -16.316406 28.894531 -14.859375 28.21875 -13.328125 C 27.539062 -11.804688 26.742188 -10.285156 25.828125 -8.765625 C 24.910156 -7.242188 23.875 -5.882812 22.71875 -4.6875 C 21.5625 -3.488281 20.25 -2.507812 18.78125 -1.75 C 17.320312 -1 15.691406 -0.625 13.890625 -0.625 Z M 15 -28.703125 C 13.90625 -28.703125 12.832031 -28.351562 11.78125 -27.65625 C 10.726562 -26.96875 9.785156 -26.015625 8.953125 -24.796875 C 8.128906 -23.585938 7.457031 -22.15625 6.9375 -20.5 C 6.425781 -18.84375 6.171875 -17.066406 6.171875 -15.171875 C 6.554688 -15.023438 7.09375 -14.898438 7.78125 -14.796875 C 8.476562 -14.691406 9.332031 -14.640625 10.34375 -14.640625 C 11.40625 -14.640625 12.460938 -14.867188 13.515625 -15.328125 C 14.566406 -15.785156 15.507812 -16.421875 16.34375 -17.234375 C 17.1875 -18.046875 17.867188 -19.015625 18.390625 -20.140625 C 18.910156 -21.265625 19.171875 -22.492188 19.171875 -23.828125 C 19.171875 -24.472656 19.082031 -25.09375 18.90625 -25.6875 C 18.726562 -26.28125 18.460938 -26.796875 18.109375 -27.234375 C 17.753906 -27.679688 17.316406 -28.035156 16.796875 -28.296875 C 16.273438 -28.566406 15.675781 -28.703125 15 -28.703125 Z M 15 -28.703125 "/></g></g></g><g fill="#1549e6" fill-opacity="1"><g transform="translate(289.911892, 82.165899)"><g><path d="M 19.53125 -55.90625 C 19.53125 -54.039062 19.3125 -52.054688 18.875 -49.953125 C 18.445312 -47.859375 17.882812 -45.726562 17.1875 -43.5625 C 16.5 -41.40625 15.703125 -39.234375 14.796875 -37.046875 C 13.890625 -34.859375 12.976562 -32.757812 12.0625 -30.75 C 11.144531 -28.738281 10.242188 -26.828125 9.359375 -25.015625 C 8.472656 -23.210938 7.691406 -21.601562 7.015625 -20.1875 C 7.128906 -17.757812 7.332031 -15.566406 7.625 -13.609375 C 7.925781 -11.660156 8.296875 -10 8.734375 -8.625 C 9.179688 -7.25 9.710938 -6.191406 10.328125 -5.453125 C 10.953125 -4.710938 11.664062 -4.34375 12.46875 -4.34375 C 13.351562 -4.34375 14.234375 -4.753906 15.109375 -5.578125 C 15.984375 -6.410156 16.863281 -7.582031 17.75 -9.09375 C 18.632812 -10.601562 19.535156 -12.421875 20.453125 -14.546875 C 21.367188 -16.679688 22.300781 -19.066406 23.25 -21.703125 L 24.984375 -21.25 C 24.273438 -19.207031 23.472656 -17.054688 22.578125 -14.796875 C 21.691406 -12.535156 20.703125 -10.457031 19.609375 -8.5625 C 18.515625 -6.664062 17.320312 -5.097656 16.03125 -3.859375 C 14.75 -2.617188 13.367188 -2 11.890625 -2 C 10.410156 -2 9.164062 -2.457031 8.15625 -3.375 C 7.15625 -4.289062 6.328125 -5.492188 5.671875 -6.984375 C 5.023438 -8.484375 4.523438 -10.1875 4.171875 -12.09375 C 3.816406 -14 3.550781 -15.941406 3.375 -17.921875 C 3.195312 -19.910156 3.09375 -21.84375 3.0625 -23.71875 C 3.03125 -25.59375 3.015625 -27.253906 3.015625 -28.703125 C 3.015625 -31.398438 3.125 -34.078125 3.34375 -36.734375 C 3.570312 -39.398438 3.914062 -41.945312 4.375 -44.375 C 4.832031 -46.800781 5.382812 -49.054688 6.03125 -51.140625 C 6.6875 -53.222656 7.445312 -55.023438 8.3125 -56.546875 C 9.1875 -58.078125 10.148438 -59.269531 11.203125 -60.125 C 12.253906 -60.976562 13.398438 -61.40625 14.640625 -61.40625 C 15.523438 -61.40625 16.28125 -61.257812 16.90625 -60.96875 C 17.53125 -60.675781 18.03125 -60.273438 18.40625 -59.765625 C 18.789062 -59.265625 19.070312 -58.679688 19.25 -58.015625 C 19.4375 -57.347656 19.53125 -56.644531 19.53125 -55.90625 Z M 6.75 -30.34375 C 6.75 -29.226562 6.75 -28.128906 6.75 -27.046875 C 6.75 -25.960938 6.773438 -24.921875 6.828125 -23.921875 C 7.566406 -25.398438 8.347656 -27.019531 9.171875 -28.78125 C 10.003906 -30.539062 10.828125 -32.359375 11.640625 -34.234375 C 12.460938 -36.109375 13.242188 -38.003906 13.984375 -39.921875 C 14.722656 -41.847656 15.367188 -43.734375 15.921875 -45.578125 C 16.484375 -47.429688 16.9375 -49.191406 17.28125 -50.859375 C 17.625 -52.535156 17.796875 -54.054688 17.796875 -55.421875 C 17.796875 -55.867188 17.757812 -56.34375 17.6875 -56.84375 C 17.613281 -57.34375 17.476562 -57.804688 17.28125 -58.234375 C 17.09375 -58.660156 16.820312 -59.015625 16.46875 -59.296875 C 16.113281 -59.578125 15.65625 -59.71875 15.09375 -59.71875 C 13.96875 -59.71875 12.894531 -58.984375 11.875 -57.515625 C 10.851562 -56.054688 9.960938 -54.023438 9.203125 -51.421875 C 8.453125 -48.816406 7.851562 -45.71875 7.40625 -42.125 C 6.96875 -38.53125 6.75 -34.601562 6.75 -30.34375 Z M 6.75 -30.34375 "/></g></g></g><g fill="#1549e6" fill-opacity="1"><g transform="translate(308.992061, 82.165899)"><g/></g></g><g fill="#1549e6" fill-opacity="1"><g transform="translate(329.004066, 82.165899)"><g><path d="M 4.265625 -18.375 L 15.09375 -18.375 C 16.65625 -21.5625 18.203125 -24.722656 19.734375 -27.859375 C 21.273438 -30.992188 22.765625 -33.992188 24.203125 -36.859375 C 25.640625 -39.734375 26.992188 -42.425781 28.265625 -44.9375 C 29.535156 -47.457031 30.664062 -49.691406 31.65625 -51.640625 C 32.644531 -53.597656 33.488281 -55.226562 34.1875 -56.53125 C 34.882812 -57.832031 35.363281 -58.707031 35.625 -59.15625 C 35.976562 -59.800781 36.351562 -60.25 36.75 -60.5 C 37.15625 -60.75 37.65625 -60.875 38.25 -60.875 C 38.925781 -60.875 39.472656 -60.660156 39.890625 -60.234375 C 40.304688 -59.804688 40.515625 -59.175781 40.515625 -58.34375 C 40.515625 -58.019531 40.484375 -57.238281 40.421875 -56 C 40.359375 -54.757812 40.28125 -53.207031 40.1875 -51.34375 C 40.101562 -49.476562 40.003906 -47.390625 39.890625 -45.078125 C 39.773438 -42.773438 39.671875 -40.398438 39.578125 -37.953125 C 39.492188 -35.515625 39.421875 -33.085938 39.359375 -30.671875 C 39.296875 -28.265625 39.265625 -26.039062 39.265625 -24 C 39.265625 -23.050781 39.265625 -22.101562 39.265625 -21.15625 C 39.265625 -20.21875 39.296875 -19.316406 39.359375 -18.453125 C 41.222656 -18.453125 42.972656 -18.453125 44.609375 -18.453125 C 46.253906 -18.453125 47.59375 -18.484375 48.625 -18.546875 L 48.625 -16.8125 C 47.03125 -16.757812 45.476562 -16.734375 43.96875 -16.734375 C 42.457031 -16.734375 40.953125 -16.734375 39.453125 -16.734375 C 39.660156 -12.878906 40.09375 -9.382812 40.75 -6.25 C 41.414062 -3.113281 42.4375 -0.429688 43.8125 1.796875 C 45.1875 4.023438 46.96875 5.753906 49.15625 6.984375 C 51.351562 8.210938 54.078125 8.828125 57.328125 8.828125 C 58.628906 8.828125 60.019531 8.664062 61.5 8.34375 L 61.8125 10.15625 C 60.300781 10.632812 58.929688 10.984375 57.703125 11.203125 C 56.472656 11.421875 55.296875 11.53125 54.171875 11.53125 C 51.453125 11.53125 49.09375 11.191406 47.09375 10.515625 C 45.101562 9.835938 43.40625 8.875 42 7.625 C 40.59375 6.382812 39.445312 4.898438 38.5625 3.171875 C 37.675781 1.441406 36.976562 -0.460938 36.46875 -2.546875 C 35.96875 -4.640625 35.613281 -6.875 35.40625 -9.25 C 35.195312 -11.632812 35.09375 -14.097656 35.09375 -16.640625 L 17 -16.640625 C 16.820312 -16.222656 16.644531 -15.828125 16.46875 -15.453125 C 16.289062 -15.085938 16.097656 -14.695312 15.890625 -14.28125 C 14.410156 -11.03125 12.988281 -8.210938 11.625 -5.828125 C 10.257812 -3.453125 8.945312 -1.421875 7.6875 0.265625 C 6.4375 1.953125 5.25 3.34375 4.125 4.4375 C 3 5.53125 1.914062 6.425781 0.875 7.125 C -0.15625 7.820312 -1.132812 8.367188 -2.0625 8.765625 C -3 9.160156 -3.878906 9.507812 -4.703125 9.8125 L -5.453125 8.25 C -5.453125 8.25 -5.171875 8.0625 -4.609375 7.6875 C -4.046875 7.320312 -3.289062 6.738281 -2.34375 5.9375 C -1.40625 5.144531 -0.300781 4.097656 0.96875 2.796875 C 2.25 1.492188 3.613281 -0.0703125 5.0625 -1.90625 C 6.507812 -3.738281 8.023438 -5.875 9.609375 -8.3125 C 11.191406 -10.757812 12.75 -13.535156 14.28125 -16.640625 L 4.265625 -16.640625 Z M 37.984375 -58.96875 C 37.660156 -58.96875 36.9375 -57.96875 35.8125 -55.96875 C 34.6875 -53.976562 33.242188 -51.191406 31.484375 -47.609375 C 29.722656 -44.035156 27.671875 -39.757812 25.328125 -34.78125 C 22.992188 -29.8125 20.453125 -24.34375 17.703125 -18.375 L 35.09375 -18.375 C 35.09375 -21.0625 35.179688 -23.769531 35.359375 -26.5 C 35.535156 -29.238281 35.75 -31.914062 36 -34.53125 C 36.257812 -37.15625 36.53125 -39.671875 36.8125 -42.078125 C 37.09375 -44.492188 37.347656 -46.710938 37.578125 -48.734375 C 37.816406 -50.765625 38.015625 -52.5625 38.171875 -54.125 C 38.335938 -55.695312 38.421875 -56.957031 38.421875 -57.90625 C 38.421875 -58.351562 38.382812 -58.640625 38.3125 -58.765625 C 38.238281 -58.898438 38.128906 -58.96875 37.984375 -58.96875 Z M 37.984375 -58.96875 "/></g></g></g><g fill="#1549e6" fill-opacity="1"><g transform="translate(380.786773, 82.165899)"><g><path d="M 17.34375 -31.453125 C 18.644531 -31.453125 19.757812 -31.28125 20.6875 -30.9375 C 21.625 -30.601562 22.390625 -30.257812 22.984375 -29.90625 C 23.191406 -33.78125 23.53125 -37.21875 24 -40.21875 C 24.476562 -43.226562 25.035156 -45.847656 25.671875 -48.078125 C 26.304688 -50.304688 26.992188 -52.179688 27.734375 -53.703125 C 28.472656 -55.234375 29.226562 -56.460938 30 -57.390625 C 30.769531 -58.328125 31.515625 -58.992188 32.234375 -59.390625 C 32.960938 -59.785156 33.632812 -59.984375 34.25 -59.984375 C 35.582031 -59.984375 36.597656 -59.421875 37.296875 -58.296875 C 37.992188 -57.179688 38.34375 -55.523438 38.34375 -53.328125 C 38.34375 -52.179688 38.210938 -50.710938 37.953125 -48.921875 C 37.703125 -47.128906 37.332031 -45.128906 36.84375 -42.921875 C 36.363281 -40.722656 35.773438 -38.363281 35.078125 -35.84375 C 34.378906 -33.332031 33.578125 -30.804688 32.671875 -28.265625 C 31.773438 -25.722656 30.789062 -23.207031 29.71875 -20.71875 C 28.65625 -18.238281 27.503906 -15.90625 26.265625 -13.71875 C 26.390625 -12.03125 26.578125 -10.664062 26.828125 -9.625 C 27.078125 -8.59375 27.394531 -7.785156 27.78125 -7.203125 C 28.164062 -6.628906 28.609375 -6.238281 29.109375 -6.03125 C 29.609375 -5.820312 30.171875 -5.71875 30.796875 -5.71875 C 31.648438 -5.71875 32.476562 -6.003906 33.28125 -6.578125 C 34.082031 -7.160156 34.894531 -8.085938 35.71875 -9.359375 C 36.550781 -10.628906 37.410156 -12.273438 38.296875 -14.296875 C 39.179688 -16.328125 40.140625 -18.796875 41.171875 -21.703125 L 42.90625 -21.25 C 42.050781 -18.976562 41.191406 -16.769531 40.328125 -14.625 C 39.472656 -12.476562 38.550781 -10.566406 37.5625 -8.890625 C 36.570312 -7.222656 35.484375 -5.882812 34.296875 -4.875 C 33.117188 -3.875 31.773438 -3.375 30.265625 -3.375 C 28.398438 -3.375 26.945312 -3.925781 25.90625 -5.03125 C 24.875 -6.144531 24.109375 -7.675781 23.609375 -9.625 C 21.890625 -7.113281 20.046875 -5.109375 18.078125 -3.609375 C 16.109375 -2.117188 14.046875 -1.375 11.890625 -1.375 C 10.679688 -1.375 9.515625 -1.601562 8.390625 -2.0625 C 7.265625 -2.519531 6.269531 -3.226562 5.40625 -4.1875 C 4.550781 -5.15625 3.859375 -6.382812 3.328125 -7.875 C 2.796875 -9.363281 2.53125 -11.160156 2.53125 -13.265625 C 2.53125 -15.453125 2.875 -17.625 3.5625 -19.78125 C 4.257812 -21.945312 5.25 -23.894531 6.53125 -25.625 C 7.820312 -27.351562 9.378906 -28.753906 11.203125 -29.828125 C 13.023438 -30.910156 15.070312 -31.453125 17.34375 -31.453125 Z M 13.4375 -3.90625 C 15.101562 -3.90625 16.769531 -4.632812 18.4375 -6.09375 C 20.101562 -7.5625 21.707031 -9.492188 23.25 -11.890625 C 23.070312 -13.285156 22.953125 -14.765625 22.890625 -16.328125 C 22.835938 -17.898438 22.8125 -19.570312 22.8125 -21.34375 C 22.8125 -22.46875 22.8125 -23.582031 22.8125 -24.6875 C 22.8125 -25.800781 22.835938 -26.875 22.890625 -27.90625 C 22.742188 -28.03125 22.53125 -28.191406 22.25 -28.390625 C 21.96875 -28.597656 21.613281 -28.804688 21.1875 -29.015625 C 20.757812 -29.222656 20.269531 -29.394531 19.71875 -29.53125 C 19.175781 -29.664062 18.5625 -29.734375 17.875 -29.734375 C 16.875 -29.734375 15.738281 -29.453125 14.46875 -28.890625 C 13.195312 -28.328125 11.988281 -27.414062 10.84375 -26.15625 C 9.707031 -24.894531 8.753906 -23.257812 7.984375 -21.25 C 7.210938 -19.238281 6.828125 -16.785156 6.828125 -13.890625 C 6.828125 -12.492188 6.984375 -11.191406 7.296875 -9.984375 C 7.609375 -8.773438 8.050781 -7.71875 8.625 -6.8125 C 9.207031 -5.90625 9.90625 -5.191406 10.71875 -4.671875 C 11.53125 -4.160156 12.4375 -3.90625 13.4375 -3.90625 Z M 36.609375 -53.328125 C 36.609375 -53.773438 36.582031 -54.28125 36.53125 -54.84375 C 36.488281 -55.40625 36.394531 -55.929688 36.25 -56.421875 C 36.101562 -56.910156 35.890625 -57.320312 35.609375 -57.65625 C 35.328125 -58 34.9375 -58.171875 34.4375 -58.171875 C 33.21875 -58.171875 32.097656 -57.164062 31.078125 -55.15625 C 30.054688 -53.144531 29.175781 -50.367188 28.4375 -46.828125 C 27.695312 -43.296875 27.117188 -39.148438 26.703125 -34.390625 C 26.296875 -29.628906 26.09375 -24.492188 26.09375 -18.984375 L 26.09375 -17 C 27.09375 -18.976562 28.050781 -21.09375 28.96875 -23.34375 C 29.882812 -25.59375 30.734375 -27.851562 31.515625 -30.125 C 32.304688 -32.40625 33.007812 -34.671875 33.625 -36.921875 C 34.25 -39.171875 34.78125 -41.304688 35.21875 -43.328125 C 35.664062 -45.359375 36.007812 -47.226562 36.25 -48.9375 C 36.488281 -50.65625 36.609375 -52.117188 36.609375 -53.328125 Z M 36.609375 -53.328125 "/></g></g></g><g fill="#1549e6" fill-opacity="1"><g transform="translate(417.793427, 82.165899)"><g><path d="M 13.890625 -0.625 C 12.378906 -0.625 10.925781 -0.890625 9.53125 -1.421875 C 8.144531 -1.953125 6.925781 -2.753906 5.875 -3.828125 C 4.820312 -4.910156 3.984375 -6.265625 3.359375 -7.890625 C 2.742188 -9.523438 2.4375 -11.4375 2.4375 -13.625 C 2.4375 -16.28125 2.820312 -18.648438 3.59375 -20.734375 C 4.363281 -22.828125 5.347656 -24.585938 6.546875 -26.015625 C 7.742188 -27.453125 9.082031 -28.546875 10.5625 -29.296875 C 12.039062 -30.054688 13.488281 -30.4375 14.90625 -30.4375 C 16.738281 -30.4375 18.195312 -29.828125 19.28125 -28.609375 C 20.363281 -27.398438 20.90625 -25.835938 20.90625 -23.921875 C 20.90625 -22.265625 20.59375 -20.757812 19.96875 -19.40625 C 19.34375 -18.0625 18.519531 -16.910156 17.5 -15.953125 C 16.476562 -14.992188 15.3125 -14.242188 14 -13.703125 C 12.6875 -13.171875 11.316406 -12.90625 9.890625 -12.90625 C 9.210938 -12.90625 8.570312 -12.941406 7.96875 -13.015625 C 7.363281 -13.097656 6.820312 -13.179688 6.34375 -13.265625 C 6.519531 -11.429688 6.875 -9.847656 7.40625 -8.515625 C 7.9375 -7.179688 8.601562 -6.085938 9.40625 -5.234375 C 10.207031 -4.378906 11.101562 -3.742188 12.09375 -3.328125 C 13.082031 -2.910156 14.109375 -2.703125 15.171875 -2.703125 C 16.503906 -2.703125 17.734375 -3.023438 18.859375 -3.671875 C 19.984375 -4.328125 21.019531 -5.179688 21.96875 -6.234375 C 22.914062 -7.285156 23.78125 -8.488281 24.5625 -9.84375 C 25.34375 -11.207031 26.039062 -12.59375 26.65625 -14 C 27.28125 -15.40625 27.835938 -16.78125 28.328125 -18.125 C 28.816406 -19.46875 29.253906 -20.660156 29.640625 -21.703125 L 31.375 -21.25 C 30.988281 -20.28125 30.535156 -19.097656 30.015625 -17.703125 C 29.492188 -16.316406 28.894531 -14.859375 28.21875 -13.328125 C 27.539062 -11.804688 26.742188 -10.285156 25.828125 -8.765625 C 24.910156 -7.242188 23.875 -5.882812 22.71875 -4.6875 C 21.5625 -3.488281 20.25 -2.507812 18.78125 -1.75 C 17.320312 -1 15.691406 -0.625 13.890625 -0.625 Z M 15 -28.703125 C 13.90625 -28.703125 12.832031 -28.351562 11.78125 -27.65625 C 10.726562 -26.96875 9.785156 -26.015625 8.953125 -24.796875 C 8.128906 -23.585938 7.457031 -22.15625 6.9375 -20.5 C 6.425781 -18.84375 6.171875 -17.066406 6.171875 -15.171875 C 6.554688 -15.023438 7.09375 -14.898438 7.78125 -14.796875 C 8.476562 -14.691406 9.332031 -14.640625 10.34375 -14.640625 C 11.40625 -14.640625 12.460938 -14.867188 13.515625 -15.328125 C 14.566406 -15.785156 15.507812 -16.421875 16.34375 -17.234375 C 17.1875 -18.046875 17.867188 -19.015625 18.390625 -20.140625 C 18.910156 -21.265625 19.171875 -22.492188 19.171875 -23.828125 C 19.171875 -24.472656 19.082031 -25.09375 18.90625 -25.6875 C 18.726562 -26.28125 18.460938 -26.796875 18.109375 -27.234375 C 17.753906 -27.679688 17.316406 -28.035156 16.796875 -28.296875 C 16.273438 -28.566406 15.675781 -28.703125 15 -28.703125 Z M 15 -28.703125 "/></g></g></g><g fill="#1549e6" fill-opacity="1"><g transform="translate(443.218901, 82.165899)"><g><path d="M 17.078125 -2.703125 C 18.117188 -2.703125 19.070312 -2.953125 19.9375 -3.453125 C 20.8125 -3.960938 21.59375 -4.628906 22.28125 -5.453125 C 21.03125 -5.804688 19.863281 -6.359375 18.78125 -7.109375 C 17.707031 -7.867188 16.753906 -8.8125 15.921875 -9.9375 C 15.097656 -11.0625 14.445312 -12.351562 13.96875 -13.8125 C 13.5 -15.28125 13.265625 -16.890625 13.265625 -18.640625 C 13.265625 -20.023438 13.441406 -21.296875 13.796875 -22.453125 C 14.148438 -23.609375 14.648438 -24.59375 15.296875 -25.40625 C 15.953125 -26.21875 16.722656 -26.851562 17.609375 -27.3125 C 18.503906 -27.769531 19.484375 -28 20.546875 -28 C 21.347656 -28 22.191406 -27.820312 23.078125 -27.46875 C 23.960938 -27.113281 24.773438 -26.515625 25.515625 -25.671875 C 26.253906 -24.828125 26.867188 -23.71875 27.359375 -22.34375 C 27.847656 -20.96875 28.09375 -19.242188 28.09375 -17.171875 C 28.09375 -15.515625 27.863281 -13.789062 27.40625 -12 C 26.945312 -10.207031 26.285156 -8.515625 25.421875 -6.921875 L 25.734375 -6.921875 C 27.242188 -6.921875 28.5625 -7.265625 29.6875 -7.953125 C 30.8125 -8.648438 31.820312 -9.632812 32.71875 -10.90625 C 33.625 -12.1875 34.484375 -13.734375 35.296875 -15.546875 C 36.109375 -17.367188 36.972656 -19.421875 37.890625 -21.703125 L 39.625 -21.25 C 38.613281 -18.59375 37.632812 -16.253906 36.6875 -14.234375 C 35.75 -12.222656 34.734375 -10.546875 33.640625 -9.203125 C 32.546875 -7.859375 31.320312 -6.835938 29.96875 -6.140625 C 28.625 -5.453125 27.050781 -5.109375 25.25 -5.109375 L 24.359375 -5.109375 C 23.359375 -3.679688 22.179688 -2.53125 20.828125 -1.65625 C 19.484375 -0.789062 17.96875 -0.359375 16.28125 -0.359375 C 14.09375 -0.359375 12.207031 -0.867188 10.625 -1.890625 C 9.039062 -2.910156 7.726562 -4.394531 6.6875 -6.34375 C 5.65625 -8.300781 4.890625 -10.679688 4.390625 -13.484375 C 3.890625 -16.296875 3.640625 -19.492188 3.640625 -23.078125 C 3.640625 -29.046875 3.957031 -34.234375 4.59375 -38.640625 C 5.226562 -43.054688 6.078125 -46.703125 7.140625 -49.578125 C 8.203125 -52.460938 9.441406 -54.59375 10.859375 -55.96875 C 12.285156 -57.351562 13.785156 -58.03125 15.359375 -58 C 16.484375 -57.9375 17.335938 -57.421875 17.921875 -56.453125 C 18.515625 -55.492188 18.8125 -54.097656 18.8125 -52.265625 C 18.8125 -50.285156 18.53125 -48.097656 17.96875 -45.703125 C 17.40625 -43.304688 16.617188 -40.722656 15.609375 -37.953125 C 14.609375 -35.191406 13.410156 -32.257812 12.015625 -29.15625 C 10.628906 -26.050781 9.109375 -22.8125 7.453125 -19.4375 C 7.515625 -18.21875 7.625 -16.960938 7.78125 -15.671875 C 7.945312 -14.390625 8.1875 -13.128906 8.5 -11.890625 C 8.8125 -10.648438 9.203125 -9.472656 9.671875 -8.359375 C 10.148438 -7.253906 10.734375 -6.28125 11.421875 -5.4375 C 12.117188 -4.59375 12.929688 -3.925781 13.859375 -3.4375 C 14.796875 -2.945312 15.867188 -2.703125 17.078125 -2.703125 Z M 14.828125 -56.171875 C 13.753906 -56.171875 12.828125 -55.703125 12.046875 -54.765625 C 11.265625 -53.835938 10.597656 -52.566406 10.046875 -50.953125 C 9.503906 -49.347656 9.054688 -47.472656 8.703125 -45.328125 C 8.347656 -43.179688 8.070312 -40.898438 7.875 -38.484375 C 7.6875 -36.078125 7.550781 -33.585938 7.46875 -31.015625 C 7.394531 -28.441406 7.359375 -25.941406 7.359375 -23.515625 C 8.785156 -26.503906 10.082031 -29.394531 11.25 -32.1875 C 12.414062 -34.988281 13.425781 -37.625 14.28125 -40.09375 C 15.144531 -42.5625 15.8125 -44.832031 16.28125 -46.90625 C 16.757812 -48.976562 17 -50.796875 17 -52.359375 C 17 -52.804688 16.972656 -53.25 16.921875 -53.6875 C 16.878906 -54.132812 16.773438 -54.539062 16.609375 -54.90625 C 16.453125 -55.28125 16.234375 -55.582031 15.953125 -55.8125 C 15.671875 -56.050781 15.296875 -56.171875 14.828125 -56.171875 Z M 16.46875 -19.078125 C 16.46875 -17.660156 16.632812 -16.304688 16.96875 -15.015625 C 17.3125 -13.734375 17.785156 -12.570312 18.390625 -11.53125 C 18.992188 -10.5 19.722656 -9.601562 20.578125 -8.84375 C 21.441406 -8.09375 22.390625 -7.539062 23.421875 -7.1875 C 23.898438 -7.988281 24.316406 -8.820312 24.671875 -9.6875 C 25.023438 -10.5625 25.316406 -11.4375 25.546875 -12.3125 C 25.785156 -13.1875 25.960938 -14.03125 26.078125 -14.84375 C 26.203125 -15.65625 26.265625 -16.375 26.265625 -17 C 26.265625 -18.414062 26.109375 -19.691406 25.796875 -20.828125 C 25.492188 -21.972656 25.082031 -22.941406 24.5625 -23.734375 C 24.039062 -24.535156 23.441406 -25.144531 22.765625 -25.5625 C 22.085938 -25.976562 21.378906 -26.1875 20.640625 -26.1875 C 19.953125 -26.1875 19.347656 -25.992188 18.828125 -25.609375 C 18.316406 -25.222656 17.882812 -24.695312 17.53125 -24.03125 C 17.175781 -23.363281 16.910156 -22.597656 16.734375 -21.734375 C 16.554688 -20.878906 16.46875 -19.992188 16.46875 -19.078125 Z M 16.46875 -19.078125 "/></g></g></g><g fill="#1549e6" fill-opacity="1"><g transform="translate(476.941992, 82.165899)"><g><path d="M 38.34375 -21.25 C 37.125 -17.96875 36.019531 -15.21875 35.03125 -13 C 34.039062 -10.78125 33.078125 -8.988281 32.140625 -7.625 C 31.210938 -6.269531 30.289062 -5.296875 29.375 -4.703125 C 28.457031 -4.109375 27.453125 -3.8125 26.359375 -3.8125 C 25.023438 -3.8125 23.882812 -4.273438 22.9375 -5.203125 C 21.988281 -6.140625 21.398438 -7.585938 21.171875 -9.546875 C 20.222656 -7.503906 18.992188 -5.835938 17.484375 -4.546875 C 15.972656 -3.265625 14.078125 -2.625 11.796875 -2.625 C 10.585938 -2.625 9.425781 -2.84375 8.3125 -3.28125 C 7.207031 -3.726562 6.222656 -4.414062 5.359375 -5.34375 C 4.503906 -6.28125 3.816406 -7.457031 3.296875 -8.875 C 2.785156 -10.289062 2.53125 -11.960938 2.53125 -13.890625 C 2.53125 -15.835938 2.773438 -17.671875 3.265625 -19.390625 C 3.753906 -21.109375 4.394531 -22.679688 5.1875 -24.109375 C 5.988281 -25.546875 6.914062 -26.828125 7.96875 -27.953125 C 9.019531 -29.078125 10.101562 -30.023438 11.21875 -30.796875 C 12.34375 -31.566406 13.46875 -32.15625 14.59375 -32.5625 C 15.71875 -32.976562 16.753906 -33.1875 17.703125 -33.1875 C 18.535156 -33.1875 19.332031 -33.082031 20.09375 -32.875 C 20.863281 -32.664062 21.550781 -32.332031 22.15625 -31.875 C 22.769531 -31.414062 23.257812 -30.800781 23.625 -30.03125 C 24 -29.269531 24.1875 -28.3125 24.1875 -27.15625 C 24.1875 -25.789062 23.925781 -24.601562 23.40625 -23.59375 C 22.882812 -22.59375 22.257812 -21.753906 21.53125 -21.078125 C 20.8125 -20.398438 20.070312 -19.851562 19.3125 -19.4375 C 18.5625 -19.019531 17.96875 -18.722656 17.53125 -18.546875 L 17 -20.28125 C 17.082031 -20.28125 17.410156 -20.394531 17.984375 -20.625 C 18.566406 -20.863281 19.175781 -21.253906 19.8125 -21.796875 C 20.445312 -22.347656 21.03125 -23.050781 21.5625 -23.90625 C 22.09375 -24.769531 22.359375 -25.820312 22.359375 -27.0625 C 22.359375 -28.488281 21.957031 -29.578125 21.15625 -30.328125 C 20.363281 -31.078125 19.347656 -31.453125 18.109375 -31.453125 C 17.160156 -31.453125 16.050781 -31.113281 14.78125 -30.4375 C 13.507812 -29.757812 12.285156 -28.695312 11.109375 -27.25 C 9.941406 -25.800781 8.953125 -23.96875 8.140625 -21.75 C 7.328125 -19.53125 6.921875 -16.878906 6.921875 -13.796875 C 6.921875 -10.753906 7.457031 -8.429688 8.53125 -6.828125 C 9.613281 -5.234375 11.070312 -4.4375 12.90625 -4.4375 C 13.820312 -4.4375 14.703125 -4.691406 15.546875 -5.203125 C 16.390625 -5.722656 17.164062 -6.410156 17.875 -7.265625 C 18.59375 -8.128906 19.234375 -9.128906 19.796875 -10.265625 C 20.359375 -11.410156 20.84375 -12.585938 21.25 -13.796875 C 21.25 -14.742188 21.359375 -15.859375 21.578125 -17.140625 C 21.804688 -18.429688 22.15625 -19.742188 22.625 -21.078125 L 25.34375 -20.1875 C 25.1875 -19.800781 25.035156 -19.296875 24.890625 -18.671875 C 24.742188 -18.054688 24.601562 -17.378906 24.46875 -16.640625 C 24.332031 -15.898438 24.21875 -15.132812 24.125 -14.34375 C 24.039062 -13.5625 24 -12.800781 24 -12.0625 C 24 -9.757812 24.226562 -8.171875 24.6875 -7.296875 C 25.144531 -6.421875 25.9375 -5.984375 27.0625 -5.984375 C 27.71875 -5.984375 28.363281 -6.21875 29 -6.6875 C 29.632812 -7.164062 30.320312 -7.992188 31.0625 -9.171875 C 31.800781 -10.359375 32.613281 -11.96875 33.5 -14 C 34.382812 -16.03125 35.421875 -18.597656 36.609375 -21.703125 Z M 38.34375 -21.25 "/></g></g></g><g fill="#1549e6" fill-opacity="1"><g transform="translate(509.378268, 82.165899)"><g><path d="M 4.171875 -21.703125 C 4.617188 -22.847656 5.097656 -23.945312 5.609375 -25 C 6.128906 -26.050781 6.6875 -26.972656 7.28125 -27.765625 C 7.875 -28.566406 8.515625 -29.210938 9.203125 -29.703125 C 9.898438 -30.191406 10.675781 -30.4375 11.53125 -30.4375 C 11.945312 -30.4375 12.421875 -30.347656 12.953125 -30.171875 C 13.484375 -29.992188 13.992188 -29.640625 14.484375 -29.109375 C 14.972656 -28.578125 15.378906 -27.804688 15.703125 -26.796875 C 16.035156 -25.796875 16.203125 -24.46875 16.203125 -22.8125 C 16.203125 -21.945312 16.15625 -21 16.0625 -19.96875 C 15.976562 -18.9375 15.890625 -17.914062 15.796875 -16.90625 C 16.710938 -18.851562 17.617188 -20.5 18.515625 -21.84375 C 19.421875 -23.195312 20.3125 -24.28125 21.1875 -25.09375 C 22.0625 -25.90625 22.925781 -26.492188 23.78125 -26.859375 C 24.644531 -27.234375 25.503906 -27.421875 26.359375 -27.421875 C 26.742188 -27.421875 27.191406 -27.332031 27.703125 -27.15625 C 28.222656 -26.976562 28.710938 -26.664062 29.171875 -26.21875 C 29.628906 -25.78125 30.015625 -25.175781 30.328125 -24.40625 C 30.640625 -23.632812 30.796875 -22.644531 30.796875 -21.4375 C 30.796875 -20.457031 30.71875 -19.476562 30.5625 -18.5 C 30.414062 -17.53125 30.253906 -16.582031 30.078125 -15.65625 C 29.898438 -14.738281 29.738281 -13.875 29.59375 -13.0625 C 29.445312 -12.25 29.375 -11.535156 29.375 -10.921875 C 29.375 -9.441406 29.640625 -8.304688 30.171875 -7.515625 C 30.703125 -6.734375 31.515625 -6.34375 32.609375 -6.34375 C 33.492188 -6.34375 34.335938 -6.675781 35.140625 -7.34375 C 35.941406 -8.007812 36.6875 -8.859375 37.375 -9.890625 C 38.070312 -10.929688 38.707031 -12.070312 39.28125 -13.3125 C 39.863281 -14.550781 40.367188 -15.738281 40.796875 -16.875 C 41.222656 -18.019531 41.582031 -19.023438 41.875 -19.890625 C 42.175781 -20.765625 42.390625 -21.367188 42.515625 -21.703125 L 44.234375 -21.25 C 43.828125 -20.21875 43.394531 -19.070312 42.9375 -17.8125 C 42.476562 -16.5625 41.96875 -15.296875 41.40625 -14.015625 C 40.84375 -12.742188 40.234375 -11.507812 39.578125 -10.3125 C 38.929688 -9.113281 38.207031 -8.054688 37.40625 -7.140625 C 36.601562 -6.222656 35.734375 -5.484375 34.796875 -4.921875 C 33.867188 -4.359375 32.84375 -4.078125 31.71875 -4.078125 C 30.78125 -4.078125 29.960938 -4.257812 29.265625 -4.625 C 28.566406 -5 27.976562 -5.5 27.5 -6.125 C 27.03125 -6.75 26.675781 -7.488281 26.4375 -8.34375 C 26.207031 -9.195312 26.09375 -10.113281 26.09375 -11.09375 C 26.09375 -12.1875 26.1875 -13.3125 26.375 -14.46875 C 26.570312 -15.625 26.78125 -16.734375 27 -17.796875 C 27.21875 -18.859375 27.421875 -19.835938 27.609375 -20.734375 C 27.804688 -21.640625 27.90625 -22.390625 27.90625 -22.984375 C 27.90625 -23.898438 27.726562 -24.585938 27.375 -25.046875 C 27.019531 -25.503906 26.53125 -25.734375 25.90625 -25.734375 C 25.050781 -25.734375 24.21875 -25.421875 23.40625 -24.796875 C 22.59375 -24.179688 21.804688 -23.351562 21.046875 -22.3125 C 20.296875 -21.28125 19.578125 -20.097656 18.890625 -18.765625 C 18.210938 -17.429688 17.585938 -16.0625 17.015625 -14.65625 C 16.441406 -13.257812 15.910156 -11.863281 15.421875 -10.46875 C 14.929688 -9.082031 14.507812 -7.828125 14.15625 -6.703125 C 13.800781 -5.578125 13.5 -4.617188 13.25 -3.828125 C 13 -3.046875 12.828125 -2.554688 12.734375 -2.359375 L 10.15625 -2.796875 C 10.507812 -4.535156 10.832031 -6.375 11.125 -8.3125 C 11.425781 -10.25 11.6875 -12.15625 11.90625 -14.03125 C 12.132812 -15.914062 12.3125 -17.71875 12.4375 -19.4375 C 12.570312 -21.15625 12.640625 -22.675781 12.640625 -24 C 12.640625 -25.8125 12.519531 -27.035156 12.28125 -27.671875 C 12.050781 -28.304688 11.625 -28.625 11 -28.625 C 10.46875 -28.625 9.960938 -28.421875 9.484375 -28.015625 C 9.015625 -27.617188 8.582031 -27.085938 8.1875 -26.421875 C 7.789062 -25.753906 7.398438 -24.976562 7.015625 -24.09375 C 6.628906 -23.207031 6.257812 -22.257812 5.90625 -21.25 Z M 4.171875 -21.703125 "/></g></g></g><g fill="#1549e6" fill-opacity="1"><g transform="translate(547.716097, 82.165899)"><g><path d="M 8.4375 -30.890625 C 8.375 -30.410156 8.21875 -29.378906 7.96875 -27.796875 C 7.71875 -26.210938 7.441406 -24.085938 7.140625 -21.421875 C 6.847656 -18.765625 6.546875 -15.566406 6.234375 -11.828125 C 5.921875 -8.085938 5.660156 -3.804688 5.453125 1.015625 C 6.785156 -0.304688 8.117188 -1.816406 9.453125 -3.515625 C 10.785156 -5.222656 12.070312 -7.046875 13.3125 -8.984375 C 14.550781 -10.921875 15.710938 -12.960938 16.796875 -15.109375 C 17.878906 -17.253906 18.816406 -19.453125 19.609375 -21.703125 L 21.34375 -21.25 C 20.394531 -18.707031 19.304688 -16.226562 18.078125 -13.8125 C 16.847656 -11.40625 15.53125 -9.113281 14.125 -6.9375 C 12.726562 -4.769531 11.273438 -2.753906 9.765625 -0.890625 C 8.253906 0.972656 6.757812 2.628906 5.28125 4.078125 L 5.28125 5.90625 C 5.132812 9.894531 4.660156 13.285156 3.859375 16.078125 C 3.054688 18.878906 2.097656 21.160156 0.984375 22.921875 C -0.117188 24.679688 -1.3125 25.96875 -2.59375 26.78125 C -3.882812 27.59375 -5.078125 28 -6.171875 28 C -7.085938 28 -7.953125 27.832031 -8.765625 27.5 C -9.578125 27.175781 -10.289062 26.71875 -10.90625 26.125 C -11.53125 25.539062 -12.019531 24.816406 -12.375 23.953125 C -12.726562 23.097656 -12.90625 22.140625 -12.90625 21.078125 C -12.90625 19.210938 -12.578125 17.546875 -11.921875 16.078125 C -11.273438 14.617188 -10.394531 13.296875 -9.28125 12.109375 C -8.175781 10.929688 -6.890625 9.851562 -5.421875 8.875 C -3.960938 7.894531 -2.421875 6.960938 -0.796875 6.078125 C -0.472656 5.898438 -0.15625 5.707031 0.15625 5.5 C 0.46875 5.289062 0.785156 5.070312 1.109375 4.84375 C 1.285156 0.988281 1.484375 -2.351562 1.703125 -5.1875 C 1.929688 -8.03125 2.175781 -10.523438 2.4375 -12.671875 C 2.707031 -14.816406 3.003906 -16.703125 3.328125 -18.328125 C 3.648438 -19.953125 3.992188 -21.46875 4.359375 -22.875 C 4.734375 -24.28125 5.117188 -25.660156 5.515625 -27.015625 C 5.921875 -28.378906 6.359375 -29.859375 6.828125 -31.453125 Z M 0 17.53125 C 0.320312 16.40625 0.554688 15.070312 0.703125 13.53125 C 0.859375 11.988281 0.960938 10.289062 1.015625 8.4375 L 1.015625 7.8125 C 0.691406 8.050781 0.390625 8.265625 0.109375 8.453125 C -0.171875 8.640625 -0.441406 8.820312 -0.703125 9 C -2.179688 9.863281 -3.523438 10.757812 -4.734375 11.6875 C -5.953125 12.625 -6.988281 13.613281 -7.84375 14.65625 C -8.707031 15.707031 -9.375 16.832031 -9.84375 18.03125 C -10.320312 19.226562 -10.5625 20.523438 -10.5625 21.921875 C -10.5625 22.453125 -10.460938 22.96875 -10.265625 23.46875 C -10.078125 23.976562 -9.8125 24.429688 -9.46875 24.828125 C -9.132812 25.222656 -8.726562 25.546875 -8.25 25.796875 C -7.78125 26.054688 -7.25 26.1875 -6.65625 26.1875 C -5.351562 26.1875 -4.128906 25.472656 -2.984375 24.046875 C -1.847656 22.628906 -0.851562 20.457031 0 17.53125 Z M 14.734375 -45.96875 C 14.734375 -44.9375 14.332031 -44.140625 13.53125 -43.578125 C 12.726562 -43.015625 11.738281 -42.734375 10.5625 -42.734375 C 9.90625 -42.734375 9.300781 -42.828125 8.75 -43.015625 C 8.207031 -43.210938 7.738281 -43.460938 7.34375 -43.765625 C 6.945312 -44.078125 6.632812 -44.445312 6.40625 -44.875 C 6.1875 -45.3125 6.078125 -45.765625 6.078125 -46.234375 C 6.078125 -47.242188 6.46875 -48.054688 7.25 -48.671875 C 8.039062 -49.296875 8.953125 -49.609375 9.984375 -49.609375 C 10.722656 -49.609375 11.390625 -49.492188 11.984375 -49.265625 C 12.578125 -49.046875 13.078125 -48.757812 13.484375 -48.40625 C 13.898438 -48.050781 14.210938 -47.660156 14.421875 -47.234375 C 14.628906 -46.804688 14.734375 -46.382812 14.734375 -45.96875 Z M 12.375 -45.96875 C 12.375 -46.257812 12.238281 -46.53125 11.96875 -46.78125 C 11.707031 -47.039062 11.328125 -47.171875 10.828125 -47.171875 C 9.910156 -47.171875 9.453125 -46.828125 9.453125 -46.140625 C 9.453125 -45.816406 9.59375 -45.546875 9.875 -45.328125 C 10.15625 -45.109375 10.53125 -45 11 -45 C 11.445312 -45 11.785156 -45.09375 12.015625 -45.28125 C 12.253906 -45.476562 12.375 -45.707031 12.375 -45.96875 Z M 12.375 -45.96875 "/></g></g></g><g fill="#1549e6" fill-opacity="1"><g transform="translate(563.157723, 82.165899)"><g><path d="M 9.28125 -4.609375 C 7.414062 -4.609375 5.867188 -5.363281 4.640625 -6.875 C 3.410156 -8.382812 2.796875 -10.664062 2.796875 -13.71875 C 2.796875 -15.726562 3.203125 -18.289062 4.015625 -21.40625 C 4.828125 -24.53125 6.238281 -28.0625 8.25 -32 L 9.890625 -31.546875 C 9.710938 -30.773438 9.425781 -29.722656 9.03125 -28.390625 C 8.632812 -27.066406 8.234375 -25.582031 7.828125 -23.9375 C 7.429688 -22.289062 7.082031 -20.570312 6.78125 -18.78125 C 6.488281 -17 6.34375 -15.28125 6.34375 -13.625 C 6.34375 -12.226562 6.445312 -11.09375 6.65625 -10.21875 C 6.863281 -9.351562 7.132812 -8.675781 7.46875 -8.1875 C 7.8125 -7.695312 8.210938 -7.363281 8.671875 -7.1875 C 9.128906 -7.007812 9.625 -6.921875 10.15625 -6.921875 C 11.019531 -6.921875 11.832031 -7.1875 12.59375 -7.71875 C 13.363281 -8.25 14.097656 -8.953125 14.796875 -9.828125 C 15.492188 -10.703125 16.144531 -11.675781 16.75 -12.75 C 17.351562 -13.832031 17.898438 -14.921875 18.390625 -16.015625 C 18.878906 -17.109375 19.316406 -18.148438 19.703125 -19.140625 C 20.085938 -20.140625 20.398438 -20.992188 20.640625 -21.703125 L 22.359375 -21.25 C 22.035156 -20.363281 21.660156 -19.335938 21.234375 -18.171875 C 20.804688 -17.003906 20.316406 -15.796875 19.765625 -14.546875 C 19.222656 -13.304688 18.609375 -12.09375 17.921875 -10.90625 C 17.242188 -9.726562 16.472656 -8.671875 15.609375 -7.734375 C 14.753906 -6.804688 13.800781 -6.050781 12.75 -5.46875 C 11.707031 -4.894531 10.550781 -4.609375 9.28125 -4.609375 Z M 16.46875 -45.96875 C 16.46875 -44.9375 16.066406 -44.140625 15.265625 -43.578125 C 14.460938 -43.015625 13.457031 -42.734375 12.25 -42.734375 C 11.625 -42.734375 11.035156 -42.828125 10.484375 -43.015625 C 9.941406 -43.210938 9.46875 -43.460938 9.0625 -43.765625 C 8.664062 -44.078125 8.359375 -44.445312 8.140625 -44.875 C 7.921875 -45.3125 7.8125 -45.765625 7.8125 -46.234375 C 7.8125 -47.242188 8.203125 -48.054688 8.984375 -48.671875 C 9.765625 -49.296875 10.675781 -49.609375 11.71875 -49.609375 C 12.457031 -49.609375 13.117188 -49.492188 13.703125 -49.265625 C 14.296875 -49.046875 14.800781 -48.757812 15.21875 -48.40625 C 15.632812 -48.050781 15.945312 -47.660156 16.15625 -47.234375 C 16.363281 -46.804688 16.46875 -46.382812 16.46875 -45.96875 Z M 14.0625 -45.96875 C 14.0625 -46.257812 13.9375 -46.53125 13.6875 -46.78125 C 13.4375 -47.039062 13.0625 -47.171875 12.5625 -47.171875 C 11.644531 -47.171875 11.1875 -46.828125 11.1875 -46.140625 C 11.1875 -45.816406 11.328125 -45.546875 11.609375 -45.328125 C 11.890625 -45.109375 12.265625 -45 12.734375 -45 C 13.179688 -45 13.515625 -45.09375 13.734375 -45.28125 C 13.953125 -45.476562 14.0625 -45.707031 14.0625 -45.96875 Z M 14.0625 -45.96875 "/></g></g></g></g></g></svg>